# Blender v2.79 (sub 0) OBJ File: 'Building_1.blend'
# www.blender.org
g Cube.009
v -1.482738 0.599791 0.912352
v -1.476021 1.848144 0.908276
v -1.482738 0.599791 -0.912352
v -1.476021 1.848144 -0.908276
v 1.524196 0.599791 0.912352
v 1.517479 1.848144 0.908276
v 1.524196 0.599791 -0.912352
v 1.517479 1.848144 -0.908276
v -1.566600 1.223968 0.963243
v -1.566600 1.223968 -0.963243
v 1.608059 1.223968 -0.963243
v 1.608059 1.223968 0.963243
vt 0.128705 0.749491
vt 0.000087 0.742163
vt 0.000087 0.500000
vt 0.128705 0.492672
vt 0.250509 0.370868
vt 0.257837 0.242250
vt 0.500000 0.242250
vt 0.507328 0.370868
vt 0.629132 0.492673
vt 0.757750 0.500000
vt 0.757750 0.742163
vt 0.629132 0.749491
vt 0.507328 0.871295
vt 0.500000 0.999913
vt 0.257837 0.999913
vt 0.250509 0.871295
vt 0.257293 0.499457
vt 0.500543 0.499457
vt 0.500543 0.742707
vt 0.257293 0.742707
vt 0.257837 0.000087
vt 0.500000 0.000087
vn -0.9896 0.1436 0.0000
vn 0.0000 0.0877 -0.9961
vn 0.9896 0.1436 0.0000
vn 0.0000 0.0877 0.9961
vn 0.0000 -1.0000 0.0000
vn 0.0000 1.0000 0.0000
vn 0.0000 -0.0813 0.9967
vn 0.9911 -0.1332 0.0000
vn 0.0000 -0.0813 -0.9967
vn -0.9911 -0.1332 0.0000
s off
f 9/1/1 2/2/1 4/3/1 10/4/1
f 10/5/2 4/6/2 8/7/2 11/8/2
f 11/9/3 8/10/3 6/11/3 12/12/3
f 12/13/4 6/14/4 2/15/4 9/16/4
f 3/17/5 7/18/5 5/19/5 1/20/5
f 8/7/6 4/6/6 2/21/6 6/22/6
f 5/19/7 12/13/7 9/16/7 1/20/7
f 7/18/8 11/9/8 12/12/8 5/19/8
f 3/17/9 10/5/9 11/8/9 7/18/9
f 1/20/10 9/1/10 10/4/10 3/17/10
