# Blender v2.79 (sub 0) OBJ File: 'Building_1.blend'
# www.blender.org
g Cube.002
v -1.528502 1.839893 1.148917
v -1.528503 2.788803 0.049976
v -1.528502 1.839893 -1.148917
v -1.528503 2.788803 -0.049976
v 1.530019 1.839893 1.148917
v 1.530019 2.788803 0.049976
v 1.530019 1.839893 -1.148917
v 1.530019 2.788803 -0.049976
v -1.433274 2.351250 0.468149
v -1.433274 2.351250 -0.468149
v 1.434791 2.351250 -0.468149
v 1.434791 2.351250 0.468149
v 0.510512 1.839893 -1.148917
v -0.508995 1.839893 -1.148917
v -0.508995 2.631383 -0.049976
v 0.510512 2.631383 -0.049976
v -0.508995 1.839893 1.148917
v 0.510512 1.839893 1.148917
v 0.510512 2.631383 0.049976
v -0.508995 2.631383 0.049976
v 0.478769 2.351250 0.468149
v -0.477252 2.351250 0.468149
v -0.477252 2.351250 -0.468149
v 0.478769 2.351250 -0.468149
vt 0.123655 0.834764
vt 0.199508 0.693363
vt 0.217639 0.693363
vt 0.293491 0.834764
vt 0.302738 0.485659
vt 0.316120 0.358118
vt 0.472696 0.357953
vt 0.428553 0.498322
vt 0.766453 0.582383
vt 0.690601 0.723784
vt 0.672470 0.723784
vt 0.596618 0.582383
vt 0.170224 0.207534
vt 0.156842 0.335075
vt 0.000266 0.335240
vt 0.044409 0.194870
vt 0.612068 0.416976
vt 0.473132 0.416976
vt 0.473132 0.000170
vt 0.612068 0.000170
vt 0.156492 0.354857
vt 0.000170 0.353247
vt 0.171538 0.005739
vt 0.040406 0.000170
vt 0.889938 0.417317
vt 0.473132 0.417317
vt 0.301424 0.687454
vt 0.432556 0.693022
vt 0.000170 0.999830
vt 0.416976 0.999830
vt 0.037207 0.693021
vt 0.042280 0.496357
vt 0.169230 0.485096
vt 0.169705 0.688089
vt 0.435756 0.000172
vt 0.430682 0.196836
vt 0.303732 0.208097
vt 0.303257 0.005104
vt 0.316470 0.338335
vt 0.472792 0.339946
vt 0.889938 0.416976
vt 0.751003 0.416976
vt 0.751003 0.000170
vt 0.889938 0.000170
vn -0.9771 -0.2127 0.0000
vn -0.0607 0.7620 -0.6447
vn 0.9771 -0.2127 0.0000
vn 0.0607 0.7620 0.6447
vn 0.0000 -1.0000 0.0000
vn 0.1526 0.9883 0.0000
vn 0.0000 0.7996 0.6006
vn 0.9831 0.1831 0.0000
vn 0.0000 0.7996 -0.6006
vn -0.9831 0.1831 -0.0000
vn -0.1526 0.9883 0.0000
vn 0.0000 1.0000 0.0000
vn -0.0607 0.7620 0.6447
vn 0.0000 0.8308 0.5566
vn 0.0607 0.7620 -0.6447
vn 0.0000 0.8308 -0.5566
s off
f 9/1/1 2/2/1 4/3/1 10/4/1
f 24/5/2 16/6/2 8/7/2 11/8/2
f 11/9/3 8/10/3 6/11/3 12/12/3
f 22/13/4 20/14/4 2/15/4 9/16/4
f 13/17/5 7/18/5 5/19/5 18/20/5
f 15/21/6 4/22/6 2/15/6 20/14/6
f 17/23/7 22/13/7 9/16/7 1/24/7
f 7/25/8 11/9/8 12/12/8 5/26/8
f 13/27/9 24/5/9 11/8/9 7/28/9
f 1/29/10 9/1/10 10/4/10 3/30/10
f 3/31/9 10/32/9 23/33/9 14/34/9
f 14/34/9 23/33/9 24/5/9 13/27/9
f 5/35/7 12/36/7 21/37/7 18/38/7
f 18/38/7 21/37/7 22/13/7 17/23/7
f 8/7/11 16/6/11 19/39/11 6/40/11
f 16/6/12 15/21/12 20/14/12 19/39/12
f 3/41/5 14/42/5 17/43/5 1/44/5
f 14/42/5 13/17/5 18/20/5 17/43/5
f 12/36/13 6/40/13 19/39/13 21/37/13
f 21/37/14 19/39/14 20/14/14 22/13/14
f 10/32/15 4/22/15 15/21/15 23/33/15
f 23/33/16 15/21/16 16/6/16 24/5/16
