# Blender v2.79 (sub 0) OBJ File: 'Building_4.blend'
# www.blender.org
g Cube.018_Cube.016
v -1.790975 1.866353 1.117958
v -1.854735 2.351968 1.186834
v -1.790975 1.866353 0.305604
v -1.854735 2.351968 0.236728
v -1.038965 1.866353 1.117958
v -0.975205 2.351968 1.186834
v -1.038965 1.866353 0.305604
v -0.975205 2.351968 0.236728
vt 0.264123 0.264123
vt 0.245687 0.000086
vt 0.500000 0.000086
vt 0.481564 0.264123
vt 0.745601 0.245687
vt 0.745601 0.500000
vt 0.481564 0.481564
vt 0.500000 0.745601
vt 0.245687 0.745601
vt 0.264123 0.481564
vt 0.000086 0.500000
vt 0.000086 0.245687
vt 0.999914 0.245687
vt 0.999914 0.500000
vn -0.9915 -0.1302 0.0000
vn 0.0000 -0.1404 -0.9901
vn 0.9915 -0.1302 0.0000
vn 0.0000 -0.1404 0.9901
vn 0.0000 -1.0000 0.0000
vn 0.0000 1.0000 0.0000
s off
f 1/1/1 2/2/1 4/3/1 3/4/1
f 3/4/2 4/5/2 8/6/2 7/7/2
f 7/7/3 8/8/3 6/9/3 5/10/3
f 5/10/4 6/11/4 2/12/4 1/1/4
f 3/4/5 7/7/5 5/10/5 1/1/5
f 8/6/6 4/5/6 2/13/6 6/14/6
g Cube.017_Cube.015
v -1.980004 2.292186 1.317320
v -1.486479 2.665771 1.390839
v -1.980004 2.292186 0.106242
v -1.486479 2.599681 0.106242
v -0.849936 2.292186 1.317320
v -1.343462 2.665771 1.390839
v -0.849936 2.292186 0.106242
v -1.343462 2.599681 0.106242
v -1.733241 2.445933 1.317320
v -1.733241 2.445933 0.106242
v -1.096699 2.445933 0.106242
v -1.096699 2.445933 1.317320
v -1.980004 2.292186 0.867313
v -1.486479 2.563211 0.913514
v -0.849936 2.292186 0.867313
v -1.343462 2.563211 0.913514
v -1.096699 2.409464 0.867313
v -1.733241 2.409464 0.867313
vt 0.246427 0.574928
vt 0.206956 0.394203
vt 0.514529 0.390640
vt 0.509331 0.543028
vt 0.093972 0.863829
vt 0.187768 0.727834
vt 0.242129 0.727834
vt 0.335925 0.863829
vt 0.246443 0.153021
vt 0.205915 0.333554
vt 0.000714 0.337039
vt 0.089230 0.153245
vt 0.850892 0.566069
vt 0.757096 0.762263
vt 0.702735 0.762263
vt 0.608939 0.566069
vt 0.515143 0.270113
vt 0.944688 0.270113
vt 0.944688 0.429721
vt 0.515143 0.429721
vt 0.000176 0.389106
vt 0.944688 0.430073
vt 0.515143 0.430073
vt 0.258731 0.017226
vt 0.110088 0.000176
vt 0.000176 0.999824
vt 0.429721 0.999824
vt 0.258378 0.710788
vt 0.514156 0.699250
vt 0.109468 0.727481
vt 0.088934 0.574204
vt 0.514778 0.029262
vt 0.509701 0.185604
vt 0.514791 0.338134
vt 0.515143 0.000176
vt 0.944688 0.000176
vn -0.5311 0.8464 0.0394
vn 0.0000 0.0000 -1.0000
vn 0.5803 0.8054 -0.1207
vn 0.0000 -0.3172 0.9484
vn 0.0000 -1.0000 0.0000
vn 0.0000 0.9777 -0.2101
vn 0.0000 0.0000 1.0000
vn 0.4811 0.8760 -0.0355
vn -0.4812 0.8763 0.0210
vn -0.4811 0.8760 -0.0355
vn 0.4812 0.8763 0.0210
vn 0.0000 0.9990 0.0451
vn 0.5311 0.8464 0.0394
vn -0.5803 0.8054 -0.1207
s off
f 26/15/7 22/16/7 12/17/7 18/18/7
f 18/19/8 12/20/8 16/21/8 19/22/8
f 25/23/9 24/24/9 14/25/9 20/26/9
f 20/27/10 14/28/10 10/29/10 17/30/10
f 21/31/11 23/32/11 13/33/11 9/34/11
f 24/24/12 22/16/12 10/35/12 14/25/12
f 13/36/13 20/27/13 17/30/13 9/37/13
f 23/38/14 25/23/14 20/26/14 13/39/14
f 11/40/8 18/19/8 19/22/8 15/41/8
f 21/42/15 26/15/15 18/18/15 11/43/15
f 9/44/16 17/45/16 26/15/16 21/42/16
f 15/46/17 19/47/17 25/23/17 23/38/17
f 16/48/18 12/17/18 22/16/18 24/24/18
f 11/49/11 15/50/11 23/32/11 21/31/11
f 19/47/19 16/48/19 24/24/19 25/23/19
f 17/45/20 10/35/20 22/16/20 26/15/20
g Cube.016_Cube.006
v -1.289356 2.680044 1.335505
v -1.414899 2.803149 1.360127
v -1.289356 2.654598 1.462730
v -1.414899 2.777703 1.487352
v -1.414899 2.556939 1.310883
v -1.540443 2.680044 1.335505
v -1.414899 2.531493 1.438108
v -1.540443 2.654598 1.462730
v -1.188966 2.778485 1.355193
v -1.314509 2.901590 1.379816
v -1.314509 2.876143 1.507041
v -1.188966 2.753038 1.482419
v -1.608530 2.433053 1.418419
v -1.734073 2.556158 1.443041
v -1.734073 2.581604 1.315816
v -1.608530 2.458499 1.291194
v -1.118326 2.556158 1.443041
v -1.243869 2.433053 1.418419
v -1.243869 2.458499 1.291194
v -1.118326 2.581604 1.315816
v -1.640833 2.753038 1.482419
v -1.515289 2.876143 1.507041
v -1.515289 2.901590 1.379816
v -1.640833 2.778485 1.355193
v -2.060483 2.306672 1.443282
v -1.934940 2.183567 1.418659
v -2.060483 2.332118 1.316056
v -1.934940 2.209013 1.291434
v -0.909220 2.216273 1.355737
v -0.783676 2.339378 1.380360
v -0.909220 2.241719 1.228512
v -0.783676 2.364824 1.253134
vt 0.261039 0.120960
vt 0.325191 0.053870
vt 0.392281 0.118022
vt 0.328129 0.185112
vt 0.328129 0.538050
vt 0.392281 0.605140
vt 0.325191 0.669292
vt 0.261039 0.602202
vt 0.763958 0.482196
vt 0.763958 0.389371
vt 0.856783 0.389371
vt 0.856783 0.482196
vt 0.271543 0.720591
vt 0.207391 0.653501
vt 0.763515 0.463598
vt 0.763515 0.537826
vt 0.670689 0.537826
vt 0.670689 0.463598
vt 0.207391 0.069661
vt 0.271543 0.002571
vt 0.763515 0.314701
vt 0.763515 0.388928
vt 0.670689 0.388928
vt 0.670689 0.314701
vt 0.188482 0.964603
vt 0.188482 0.871777
vt 0.401735 0.906953
vt 0.401735 0.999779
vt 0.494666 0.168229
vt 0.430514 0.235320
vt 0.074449 0.871777
vt 0.074449 0.964603
vt 0.430514 0.487842
vt 0.494666 0.554933
vt 0.327821 0.761188
vt 0.440334 0.779747
vt 0.425226 0.871335
vt 0.312714 0.852776
vt 0.656469 0.779746
vt 0.641362 0.871334
vt 0.239907 0.239587
vt 0.172817 0.175435
vt 0.210411 0.835901
vt 0.225518 0.744314
vt 0.172817 0.547727
vt 0.239907 0.483575
vt 0.670689 0.211015
vt 0.763515 0.211015
vt 0.763515 0.631094
vt 0.670689 0.631094
vt 0.670689 0.538269
vt 0.763515 0.538268
vt 0.376490 0.000221
vt 0.443580 0.064373
vt 0.670689 0.389371
vt 0.763515 0.389371
vt 0.443580 0.658789
vt 0.376490 0.722941
vt 0.000221 0.964603
vt 0.000221 0.871777
vt 0.000221 0.425954
vt 0.067312 0.361802
vt 0.067312 0.361360
vt 0.000221 0.297208
vt 0.606094 0.361802
vt 0.670246 0.428893
vt 0.684246 0.000221
vt 0.777071 0.000221
vt 0.670246 0.294269
vt 0.606094 0.361360
vt 0.000221 0.814971
vt 0.015328 0.723383
vt 0.763515 0.724362
vt 0.670689 0.724362
vt 0.670689 0.631537
vt 0.763515 0.631537
vt 0.763515 0.724805
vt 0.763515 0.817631
vt 0.670689 0.817631
vt 0.670689 0.724805
vn 0.0000 -0.1961 0.9806
vn 0.0000 0.1961 -0.9806
vn 0.7071 0.6934 0.1387
vn -0.7071 0.6934 0.1387
vn 0.7071 -0.6934 -0.1387
vn -0.5997 0.7847 0.1569
vn -0.4603 0.8705 0.1741
vn 0.4603 -0.8705 -0.1741
vn 0.5997 -0.7847 -0.1570
vn -0.5062 -0.8457 -0.1691
vn 0.5062 0.8457 0.1691
vn -0.7071 -0.6934 -0.1387
vn -0.0338 0.2291 -0.9728
vn 0.0338 -0.2291 0.9728
vn -0.0855 0.1109 -0.9902
vn 0.5577 0.8139 0.1628
vn 0.0855 -0.1109 0.9902
vn -0.5577 -0.8139 -0.1628
s off
f 29/51/21 30/52/21 34/53/21 33/54/21
f 31/55/22 32/56/22 28/57/22 27/58/22
f 35/59/23 36/60/23 37/61/23 38/62/23
f 28/57/22 36/63/22 35/64/22 27/58/22
f 30/65/24 37/66/24 36/67/24 28/68/24
f 29/51/21 38/69/21 37/70/21 30/52/21
f 27/71/25 35/72/25 38/73/25 29/74/25
f 40/75/26 41/76/26 53/77/26 51/78/26
f 34/53/21 40/79/21 39/80/21 33/54/21
f 32/81/27 41/76/27 40/75/27 34/82/27
f 31/55/22 42/83/22 41/84/22 32/56/22
f 33/85/28 39/86/28 42/87/28 31/88/28
f 42/87/29 39/86/29 52/89/29 54/90/29
f 33/54/21 44/91/21 43/92/21 29/51/21
f 31/88/30 45/93/30 44/94/30 33/85/30
f 27/58/22 46/95/22 45/96/22 31/55/22
f 29/74/31 43/97/31 46/98/31 27/71/31
f 47/99/24 48/100/24 49/101/24 50/102/24
f 30/52/21 48/103/21 47/104/21 34/53/21
f 28/68/23 49/105/23 48/106/23 30/65/23
f 32/56/22 50/107/22 49/108/22 28/57/22
f 34/82/32 47/109/32 50/110/32 32/81/32
f 45/96/33 46/95/33 58/111/33 57/112/33
f 43/92/34 44/91/34 55/113/34 56/114/34
f 41/84/35 42/83/35 54/115/35 53/116/35
f 46/98/36 43/97/36 56/117/36 58/118/36
f 39/80/37 40/79/37 51/119/37 52/120/37
f 44/94/38 45/93/38 57/121/38 55/122/38
f 51/123/32 53/124/32 54/125/32 52/126/32
f 55/127/25 57/128/25 58/129/25 56/130/25
g Cube.021_Cube.025
v 1.491700 2.680044 1.335505
v 1.366157 2.803149 1.360127
v 1.491700 2.654598 1.462730
v 1.366157 2.777703 1.487352
v 1.366157 2.556939 1.310883
v 1.240614 2.680044 1.335505
v 1.366157 2.531493 1.438108
v 1.240614 2.654598 1.462730
v 1.592090 2.778485 1.355193
v 1.466547 2.901590 1.379816
v 1.466547 2.876143 1.507041
v 1.592090 2.753038 1.482419
v 1.172527 2.433053 1.418419
v 1.046983 2.556158 1.443041
v 1.046983 2.581604 1.315816
v 1.172527 2.458499 1.291194
v 1.662730 2.556158 1.443041
v 1.537187 2.433053 1.418419
v 1.537187 2.458499 1.291194
v 1.662730 2.581604 1.315816
v 1.140224 2.753038 1.482419
v 1.265767 2.876143 1.507041
v 1.265767 2.901590 1.379816
v 1.140224 2.778485 1.355193
v 0.720573 2.306672 1.443282
v 0.846116 2.183567 1.418659
v 0.720573 2.332118 1.316056
v 0.846116 2.209013 1.291434
v 1.871837 2.216273 1.355737
v 1.997380 2.339378 1.380360
v 1.871837 2.241719 1.228512
v 1.997380 2.364824 1.253134
vt 0.261039 0.120960
vt 0.325191 0.053870
vt 0.392281 0.118022
vt 0.328129 0.185112
vt 0.328129 0.538050
vt 0.392281 0.605140
vt 0.325191 0.669292
vt 0.261039 0.602202
vt 0.763958 0.482196
vt 0.763958 0.389371
vt 0.856783 0.389371
vt 0.856783 0.482196
vt 0.271543 0.720591
vt 0.207391 0.653501
vt 0.763515 0.463598
vt 0.763515 0.537826
vt 0.670689 0.537826
vt 0.670689 0.463598
vt 0.207391 0.069661
vt 0.271543 0.002571
vt 0.763515 0.314701
vt 0.763515 0.388928
vt 0.670689 0.388928
vt 0.670689 0.314701
vt 0.188482 0.964603
vt 0.188482 0.871777
vt 0.401735 0.906953
vt 0.401735 0.999779
vt 0.494666 0.168229
vt 0.430514 0.235320
vt 0.074449 0.871777
vt 0.074449 0.964603
vt 0.430514 0.487842
vt 0.494666 0.554933
vt 0.327821 0.761188
vt 0.440334 0.779747
vt 0.425226 0.871335
vt 0.312714 0.852776
vt 0.656469 0.779746
vt 0.641362 0.871334
vt 0.239907 0.239587
vt 0.172817 0.175435
vt 0.210411 0.835901
vt 0.225518 0.744314
vt 0.172817 0.547727
vt 0.239907 0.483575
vt 0.670689 0.211015
vt 0.763515 0.211015
vt 0.763515 0.631094
vt 0.670689 0.631094
vt 0.670689 0.538269
vt 0.763515 0.538268
vt 0.376490 0.000221
vt 0.443580 0.064373
vt 0.670689 0.389371
vt 0.763515 0.389371
vt 0.443580 0.658789
vt 0.376490 0.722941
vt 0.000221 0.964603
vt 0.000221 0.871777
vt 0.000221 0.425954
vt 0.067312 0.361802
vt 0.067312 0.361360
vt 0.000221 0.297208
vt 0.606094 0.361802
vt 0.670246 0.428893
vt 0.684246 0.000221
vt 0.777071 0.000221
vt 0.670246 0.294269
vt 0.606094 0.361360
vt 0.000221 0.814971
vt 0.015328 0.723383
vt 0.763515 0.724362
vt 0.670689 0.724362
vt 0.670689 0.631537
vt 0.763515 0.631537
vt 0.763515 0.724805
vt 0.763515 0.817631
vt 0.670689 0.817631
vt 0.670689 0.724805
vn 0.0000 -0.1961 0.9806
vn 0.0000 0.1961 -0.9806
vn 0.7071 0.6934 0.1387
vn -0.7071 0.6934 0.1387
vn 0.7071 -0.6934 -0.1387
vn -0.5997 0.7847 0.1569
vn -0.4603 0.8705 0.1741
vn 0.4603 -0.8705 -0.1741
vn 0.5997 -0.7847 -0.1570
vn -0.5062 -0.8457 -0.1691
vn 0.5062 0.8457 0.1691
vn -0.7071 -0.6934 -0.1387
vn -0.0338 0.2291 -0.9728
vn 0.0338 -0.2291 0.9728
vn -0.0855 0.1109 -0.9902
vn 0.5577 0.8139 0.1628
vn 0.0855 -0.1109 0.9902
vn -0.5577 -0.8139 -0.1628
s off
f 61/131/39 62/132/39 66/133/39 65/134/39
f 63/135/40 64/136/40 60/137/40 59/138/40
f 67/139/41 68/140/41 69/141/41 70/142/41
f 60/137/40 68/143/40 67/144/40 59/138/40
f 62/145/42 69/146/42 68/147/42 60/148/42
f 61/131/39 70/149/39 69/150/39 62/132/39
f 59/151/43 67/152/43 70/153/43 61/154/43
f 72/155/44 73/156/44 85/157/44 83/158/44
f 66/133/39 72/159/39 71/160/39 65/134/39
f 64/161/45 73/156/45 72/155/45 66/162/45
f 63/135/40 74/163/40 73/164/40 64/136/40
f 65/165/46 71/166/46 74/167/46 63/168/46
f 74/167/47 71/166/47 84/169/47 86/170/47
f 65/134/39 76/171/39 75/172/39 61/131/39
f 63/168/48 77/173/48 76/174/48 65/165/48
f 59/138/40 78/175/40 77/176/40 63/135/40
f 61/154/49 75/177/49 78/178/49 59/151/49
f 79/179/42 80/180/42 81/181/42 82/182/42
f 62/132/39 80/183/39 79/184/39 66/133/39
f 60/148/41 81/185/41 80/186/41 62/145/41
f 64/136/40 82/187/40 81/188/40 60/137/40
f 66/162/50 79/189/50 82/190/50 64/161/50
f 77/176/51 78/175/51 90/191/51 89/192/51
f 75/172/52 76/171/52 87/193/52 88/194/52
f 73/164/53 74/163/53 86/195/53 85/196/53
f 78/178/54 75/177/54 88/197/54 90/198/54
f 71/160/55 72/159/55 83/199/55 84/200/55
f 76/174/56 77/173/56 89/201/56 87/202/56
f 83/203/50 85/204/50 86/205/50 84/206/50
f 87/207/43 89/208/43 90/209/43 88/210/43
g Cube.020_Cube.024
v 0.807034 2.292186 1.317320
v 1.300559 2.665771 1.390839
v 0.807034 2.292186 0.106242
v 1.300559 2.599681 0.106242
v 1.937102 2.292186 1.317320
v 1.443576 2.665771 1.390839
v 1.937102 2.292186 0.106242
v 1.443576 2.599681 0.106242
v 1.053797 2.445933 1.317320
v 1.053797 2.445933 0.106242
v 1.690339 2.445933 0.106242
v 1.690339 2.445933 1.317320
v 0.807034 2.292186 0.867313
v 1.300559 2.563211 0.913514
v 1.937102 2.292186 0.867313
v 1.443576 2.563211 0.913514
v 1.690339 2.409464 0.867313
v 1.053797 2.409464 0.867313
vt 0.246427 0.574928
vt 0.206956 0.394203
vt 0.514529 0.390640
vt 0.509331 0.543028
vt 0.093972 0.863829
vt 0.187768 0.727834
vt 0.242129 0.727834
vt 0.335925 0.863829
vt 0.246443 0.153021
vt 0.205915 0.333554
vt 0.000714 0.337039
vt 0.089230 0.153245
vt 0.850892 0.566069
vt 0.757096 0.762263
vt 0.702735 0.762263
vt 0.608939 0.566069
vt 0.515143 0.270113
vt 0.944688 0.270113
vt 0.944688 0.429721
vt 0.515143 0.429721
vt 0.000176 0.389106
vt 0.944688 0.430073
vt 0.515143 0.430073
vt 0.258731 0.017226
vt 0.110088 0.000176
vt 0.000176 0.999824
vt 0.429721 0.999824
vt 0.258378 0.710788
vt 0.514156 0.699250
vt 0.109468 0.727481
vt 0.088934 0.574204
vt 0.514778 0.029262
vt 0.509701 0.185604
vt 0.514791 0.338134
vt 0.515143 0.000176
vt 0.944688 0.000176
vn -0.5311 0.8464 0.0394
vn 0.0000 0.0000 -1.0000
vn 0.5803 0.8054 -0.1207
vn 0.0000 -0.3172 0.9484
vn 0.0000 -1.0000 0.0000
vn 0.0000 0.9777 -0.2101
vn 0.0000 0.0000 1.0000
vn 0.4811 0.8760 -0.0355
vn -0.4812 0.8763 0.0210
vn -0.4811 0.8760 -0.0355
vn 0.4812 0.8763 0.0210
vn 0.0000 0.9990 0.0451
vn 0.5311 0.8464 0.0394
vn -0.5803 0.8054 -0.1207
s off
f 108/211/57 104/212/57 94/213/57 100/214/57
f 100/215/58 94/216/58 98/217/58 101/218/58
f 107/219/59 106/220/59 96/221/59 102/222/59
f 102/223/60 96/224/60 92/225/60 99/226/60
f 103/227/61 105/228/61 95/229/61 91/230/61
f 106/220/62 104/212/62 92/231/62 96/221/62
f 95/232/63 102/223/63 99/226/63 91/233/63
f 105/234/64 107/219/64 102/222/64 95/235/64
f 93/236/58 100/215/58 101/218/58 97/237/58
f 103/238/65 108/211/65 100/214/65 93/239/65
f 91/240/66 99/241/66 108/211/66 103/238/66
f 97/242/67 101/243/67 107/219/67 105/234/67
f 98/244/68 94/213/68 104/212/68 106/220/68
f 93/245/61 97/246/61 105/228/61 103/227/61
f 101/243/69 98/244/69 106/220/69 107/219/69
f 99/241/70 92/231/70 104/212/70 108/211/70
g Cube.019_Cube.023
v 0.996063 1.866353 1.117958
v 0.932303 2.351968 1.186834
v 0.996063 1.866353 0.305604
v 0.932303 2.351968 0.236728
v 1.748073 1.866353 1.117958
v 1.811832 2.351968 1.186834
v 1.748073 1.866353 0.305604
v 1.811832 2.351968 0.236728
vt 0.264123 0.264123
vt 0.245687 0.000086
vt 0.500000 0.000086
vt 0.481564 0.264123
vt 0.745601 0.245687
vt 0.745601 0.500000
vt 0.481564 0.481564
vt 0.500000 0.745601
vt 0.245687 0.745601
vt 0.264123 0.481564
vt 0.000086 0.500000
vt 0.000086 0.245687
vt 0.999914 0.245687
vt 0.999914 0.500000
vn -0.9915 -0.1302 0.0000
vn 0.0000 -0.1404 -0.9901
vn 0.9915 -0.1302 0.0000
vn 0.0000 -0.1404 0.9901
vn 0.0000 -1.0000 0.0000
vn 0.0000 1.0000 0.0000
s off
f 109/247/71 110/248/71 112/249/71 111/250/71
f 111/250/72 112/251/72 116/252/72 115/253/72
f 115/253/73 116/254/73 114/255/73 113/256/73
f 113/256/74 114/257/74 110/258/74 109/247/74
f 111/250/75 115/253/75 113/256/75 109/247/75
f 116/252/76 112/251/76 110/259/76 114/260/76
g Cube.007
v 0.151166 2.690999 1.555809
v -0.004958 2.844092 1.586429
v 0.151166 2.660943 1.706083
v -0.004958 2.814036 1.736702
v -0.004958 2.537907 1.525189
v -0.161083 2.690999 1.555809
v -0.004958 2.507850 1.675463
v -0.161083 2.660943 1.706083
v 0.276011 2.813419 1.580294
v 0.119886 2.966511 1.610914
v 0.119886 2.936455 1.761187
v 0.276011 2.783363 1.730568
v -0.245756 2.385431 1.650978
v -0.401880 2.538523 1.681598
v -0.401880 2.568580 1.531324
v -0.245756 2.415487 1.500704
v 0.363858 2.538523 1.681598
v 0.207733 2.385431 1.650978
v 0.207733 2.415487 1.500704
v 0.363858 2.568579 1.531324
v -0.285927 2.783363 1.730567
v -0.129803 2.936455 1.761187
v -0.129802 2.966511 1.610914
v -0.285927 2.813419 1.580294
v -0.791655 2.343286 1.679994
v -0.635530 2.190193 1.649374
v -0.791655 2.373342 1.529720
v -0.635530 2.220249 1.499100
v 0.623901 2.190193 1.649374
v 0.780026 2.343286 1.679994
v 0.623901 2.220249 1.499100
v 0.780026 2.373342 1.529720
vt 0.263578 0.117437
vt 0.328734 0.052307
vt 0.393863 0.117463
vt 0.328708 0.182592
vt 0.328689 0.449239
vt 0.393826 0.514387
vt 0.328678 0.579524
vt 0.263541 0.514376
vt 0.658353 0.446542
vt 0.658353 0.354417
vt 0.750478 0.354417
vt 0.750478 0.446542
vt 0.276583 0.631610
vt 0.211446 0.566463
vt 0.750478 0.073874
vt 0.750478 0.147541
vt 0.658353 0.147541
vt 0.658353 0.073874
vt 0.211498 0.065336
vt 0.276653 0.000207
vt 0.703332 0.926126
vt 0.703332 0.999793
vt 0.611207 0.999793
vt 0.611207 0.926126
vt 0.187046 0.838768
vt 0.187046 0.746643
vt 0.368294 0.768715
vt 0.368294 0.860841
vt 0.494324 0.169573
vt 0.429169 0.234703
vt 0.073874 0.746643
vt 0.073874 0.838768
vt 0.429165 0.397157
vt 0.494301 0.462304
vt 0.294301 0.654105
vt 0.407473 0.654105
vt 0.407473 0.746230
vt 0.294301 0.746230
vt 0.588721 0.632032
vt 0.588721 0.724157
vt 0.239953 0.234665
vt 0.174823 0.169510
vt 0.191398 0.746230
vt 0.191398 0.654105
vt 0.174801 0.462278
vt 0.239948 0.397141
vt 0.611207 0.823223
vt 0.703332 0.823223
vt 0.750478 0.539081
vt 0.658353 0.539081
vt 0.658353 0.446955
vt 0.750478 0.446955
vt 0.380834 0.000227
vt 0.445964 0.065382
vt 0.658353 0.000207
vt 0.750478 0.000207
vt 0.445912 0.566482
vt 0.380764 0.631619
vt 0.000207 0.838768
vt 0.000207 0.746643
vt 0.000207 0.381296
vt 0.065354 0.316159
vt 0.065336 0.315599
vt 0.000207 0.250443
vt 0.592803 0.316159
vt 0.657940 0.381307
vt 0.589134 0.632032
vt 0.681259 0.632032
vt 0.657940 0.250617
vt 0.592784 0.315746
vt 0.000207 0.724157
vt 0.000207 0.632032
vt 0.750478 0.240079
vt 0.658353 0.240079
vt 0.658353 0.147954
vt 0.750478 0.147954
vt 0.750478 0.539494
vt 0.750478 0.631619
vt 0.658353 0.631619
vt 0.658353 0.539494
vn 0.0000 -0.1961 0.9806
vn 0.0000 0.1961 -0.9806
vn 0.7071 0.6934 0.1387
vn -0.7071 0.6934 0.1387
vn 0.7071 -0.6934 -0.1387
vn -0.4414 0.8799 0.1760
vn -0.4603 0.8705 0.1741
vn 0.4603 -0.8705 -0.1741
vn 0.4414 -0.8799 -0.1760
vn -0.5062 -0.8457 -0.1691
vn 0.5062 0.8457 0.1691
vn -0.7071 -0.6934 -0.1387
vn 0.0602 0.1364 -0.9888
vn -0.0602 -0.1364 0.9888
vn -0.0629 0.1337 -0.9890
vn 0.4185 0.8906 0.1781
vn 0.0629 -0.1337 0.9890
vn -0.4185 -0.8906 -0.1781
s off
f 119/261/77 120/262/77 124/263/77 123/264/77
f 121/265/78 122/266/78 118/267/78 117/268/78
f 125/269/79 126/270/79 127/271/79 128/272/79
f 118/267/78 126/273/78 125/274/78 117/268/78
f 120/275/80 127/276/80 126/277/80 118/278/80
f 119/261/77 128/279/77 127/280/77 120/262/77
f 117/281/81 125/282/81 128/283/81 119/284/81
f 130/285/82 131/286/82 143/287/82 141/288/82
f 124/263/77 130/289/77 129/290/77 123/264/77
f 122/291/83 131/286/83 130/285/83 124/292/83
f 121/265/78 132/293/78 131/294/78 122/266/78
f 123/295/84 129/296/84 132/297/84 121/298/84
f 132/297/85 129/296/85 142/299/85 144/300/85
f 123/264/77 134/301/77 133/302/77 119/261/77
f 121/298/86 135/303/86 134/304/86 123/295/86
f 117/268/78 136/305/78 135/306/78 121/265/78
f 119/284/87 133/307/87 136/308/87 117/281/87
f 137/309/80 138/310/80 139/311/80 140/312/80
f 120/262/77 138/313/77 137/314/77 124/263/77
f 118/278/79 139/315/79 138/316/79 120/275/79
f 122/266/78 140/317/78 139/318/78 118/267/78
f 124/292/88 137/319/88 140/320/88 122/291/88
f 135/306/89 136/305/89 148/321/89 147/322/89
f 133/302/90 134/301/90 145/323/90 146/324/90
f 131/294/91 132/293/91 144/325/91 143/326/91
f 136/308/92 133/307/92 146/327/92 148/328/92
f 129/290/93 130/289/93 141/329/93 142/330/93
f 134/304/94 135/303/94 147/331/94 145/332/94
f 141/333/88 143/334/88 144/335/88 142/336/88
f 145/337/81 147/338/81 148/339/81 146/340/81
g Cube.004
v -0.662250 2.272527 1.535277
v -0.082074 2.676298 1.621704
v -0.662250 2.272527 0.111563
v -0.082074 2.676298 0.111563
v 0.666231 2.272527 1.535277
v 0.086054 2.676298 1.621704
v 0.666231 2.272527 0.111563
v 0.086054 2.676298 0.111563
v -0.372162 2.474413 1.535277
v -0.372162 2.474413 0.111563
v 0.376142 2.474413 0.111563
v 0.376142 2.474413 1.535277
v -0.662250 2.272527 0.823420
v -0.082074 2.619832 0.866633
v 0.666231 2.272527 0.823420
v 0.086054 2.619832 0.866633
v 0.376142 2.417947 0.823420
v -0.372162 2.417947 0.823420
vt 0.264487 0.571936
vt 0.250870 0.389124
vt 0.501093 0.386199
vt 0.486733 0.550159
vt 0.097816 0.858255
vt 0.195457 0.716685
vt 0.252046 0.716685
vt 0.349687 0.858255
vt 0.263027 0.145852
vt 0.250073 0.328758
vt 0.000178 0.331704
vt 0.040645 0.170347
vt 0.850956 0.589248
vt 0.753315 0.733396
vt 0.696726 0.733396
vt 0.599085 0.589248
vt 0.501445 0.223752
vt 0.948596 0.223752
vt 0.948596 0.447327
vt 0.501445 0.447327
vt 0.000176 0.387214
vt 0.948596 0.447679
vt 0.501445 0.447679
vt 0.261816 0.006376
vt 0.045011 0.003885
vt 0.000176 0.999824
vt 0.447327 0.999824
vt 0.264053 0.711387
vt 0.480497 0.716334
vt 0.047134 0.715160
vt 0.041751 0.548654
vt 0.478483 0.000176
vt 0.485708 0.166481
vt 0.501093 0.330620
vt 0.501445 0.000176
vt 0.948596 0.000176
vn -0.5732 0.8170 0.0629
vn 0.0000 0.0000 -1.0000
vn 0.5605 0.8257 -0.0636
vn 0.0000 -0.3936 0.9193
vn 0.0000 -1.0000 0.0000
vn 0.0000 0.9972 -0.0746
vn 0.0000 0.0000 1.0000
vn 0.5133 0.8575 -0.0340
vn -0.5133 0.8575 0.0340
vn -0.5133 0.8575 -0.0340
vn 0.5133 0.8575 0.0340
vn 0.0000 0.9972 0.0746
vn 0.5732 0.8170 0.0629
vn -0.5605 0.8257 -0.0636
s off
f 166/341/95 162/342/95 152/343/95 158/344/95
f 158/345/96 152/346/96 156/347/96 159/348/96
f 165/349/97 164/350/97 154/351/97 160/352/97
f 160/353/98 154/354/98 150/355/98 157/356/98
f 161/357/99 163/358/99 153/359/99 149/360/99
f 164/350/100 162/342/100 150/361/100 154/351/100
f 153/362/101 160/353/101 157/356/101 149/363/101
f 163/364/102 165/349/102 160/352/102 153/365/102
f 151/366/96 158/345/96 159/348/96 155/367/96
f 161/368/103 166/341/103 158/344/103 151/369/103
f 149/370/104 157/371/104 166/341/104 161/368/104
f 155/372/105 159/373/105 165/349/105 163/364/105
f 156/374/106 152/343/106 162/342/106 164/350/106
f 151/375/99 155/376/99 163/358/99 161/357/99
f 159/373/107 156/374/107 164/350/107 165/349/107
f 157/371/108 150/361/108 162/342/108 166/341/108
g Cube.003
v -0.440033 1.703428 1.338863
v -0.514987 2.341089 1.419832
v -0.440033 1.703428 0.383879
v -0.514987 2.341089 0.302911
v 0.444013 1.703428 1.338863
v 0.518967 2.341089 1.419832
v 0.444013 1.703428 0.383879
v 0.518967 2.341089 0.302911
vt 0.264123 0.264123
vt 0.245687 0.000086
vt 0.500000 0.000086
vt 0.481564 0.264123
vt 0.745601 0.245687
vt 0.745601 0.500000
vt 0.481564 0.481564
vt 0.500000 0.745601
vt 0.245687 0.745601
vt 0.264123 0.481564
vt 0.000086 0.500000
vt 0.000086 0.245687
vt 0.999914 0.245687
vt 0.999914 0.500000
vn -0.9932 -0.1167 0.0000
vn 0.0000 -0.1260 -0.9920
vn 0.9932 -0.1167 0.0000
vn 0.0000 -0.1260 0.9920
vn 0.0000 -1.0000 0.0000
vn 0.0000 1.0000 0.0000
s off
f 167/377/109 168/378/109 170/379/109 169/380/109
f 169/380/110 170/381/110 174/382/110 173/383/110
f 173/383/111 174/384/111 172/385/111 171/386/111
f 171/386/112 172/387/112 168/388/112 167/377/112
f 169/380/113 173/383/113 171/386/113 167/377/113
f 174/382/114 170/381/114 168/389/114 172/390/114
