# Blender v2.79 (sub 0) OBJ File: 'Building_4.blend'
# www.blender.org
g Cube.009
v -2.068094 0.037718 1.152345
v -2.310292 1.675200 1.285959
v -2.068094 0.037718 -1.152345
v -2.310292 1.675200 -1.285959
v 2.109552 0.037718 1.152345
v 2.351751 1.675200 1.285959
v 2.109552 0.037718 -1.152345
v 2.351751 1.675200 -1.285959
v -2.280087 0.856459 1.269296
v -2.280087 0.856459 -1.269296
v 2.321545 0.856459 -1.269296
v 2.321545 0.856459 1.269296
vt 0.131943 0.747034
vt 0.000087 0.748645
vt 0.000087 0.500000
vt 0.131943 0.501611
vt 0.252966 0.380587
vt 0.251355 0.248731
vt 0.500000 0.248731
vt 0.498389 0.380587
vt 0.619413 0.501611
vt 0.751269 0.500000
vt 0.751269 0.748645
vt 0.619413 0.747034
vt 0.498389 0.868057
vt 0.500000 0.999913
vt 0.251355 0.999913
vt 0.252966 0.868057
vt 0.264273 0.512917
vt 0.487083 0.512917
vt 0.487083 0.735727
vt 0.264273 0.735727
vt 0.251355 0.000087
vt 0.500000 0.000087
vn -0.9993 -0.0369 0.0000
vn 0.0000 -0.0203 -0.9998
vn 0.9993 -0.0369 0.0000
vn 0.0000 -0.0203 0.9998
vn 0.0000 -1.0000 0.0000
vn 0.0000 1.0000 0.0000
vn 0.0000 -0.1414 0.9900
vn 0.9681 -0.2507 0.0000
vn 0.0000 -0.1414 -0.9900
vn -0.9681 -0.2507 0.0000
s off
f 9/1/1 2/2/1 4/3/1 10/4/1
f 10/5/2 4/6/2 8/7/2 11/8/2
f 11/9/3 8/10/3 6/11/3 12/12/3
f 12/13/4 6/14/4 2/15/4 9/16/4
f 3/17/5 7/18/5 5/19/5 1/20/5
f 8/7/6 4/6/6 2/21/6 6/22/6
f 5/19/7 12/13/7 9/16/7 1/20/7
f 7/18/8 11/9/8 12/12/8 5/19/8
f 3/17/9 10/5/9 11/8/9 7/18/9
f 1/20/10 9/1/10 10/4/10 3/17/10
