# Blender v2.79 (sub 0) OBJ File: 'Building_2.blend'
# www.blender.org
g Cube.006_Cube.001
v -1.480729 2.776209 0.147437
v -1.509645 2.920783 0.000000
v -1.644834 2.743387 0.147437
v -1.673750 2.887960 0.000000
v -1.451813 2.631635 0.000000
v -1.480729 2.776209 -0.147437
v -1.615919 2.598813 -0.000000
v -1.644834 2.743387 -0.147437
v -1.503851 2.891816 0.265334
v -1.532767 3.036390 0.117897
v -1.696873 3.003567 0.117897
v -1.667957 2.858994 0.265334
v -1.592796 2.483205 -0.117897
v -1.621712 2.627779 -0.265334
v -1.457606 2.660602 -0.265334
v -1.428690 2.516028 -0.117897
v -1.621712 2.627779 0.265334
v -1.592796 2.483205 0.117897
v -1.428690 2.516028 0.117897
v -1.457606 2.660602 0.265334
v -1.667957 2.858994 -0.265334
v -1.696873 3.003567 -0.117897
v -1.532767 3.036390 -0.117897
v -1.503851 2.891816 -0.265334
v -1.567662 2.314800 -0.687454
v -1.538747 2.170227 -0.540017
v -1.403557 2.347623 -0.687454
v -1.374641 2.203049 -0.540017
v -1.538747 2.170227 0.567821
v -1.567663 2.314800 0.715258
v -1.374641 2.203049 0.567821
v -1.403557 2.347623 0.715258
v -1.581555 1.861693 -1.502683
v -1.579856 1.715636 -1.355246
v -1.412448 1.847038 -1.502683
v -1.410749 1.700981 -1.355246
v -1.579857 1.684144 1.399586
v -1.581556 1.830201 1.547024
v -1.410750 1.669489 1.399586
v -1.412449 1.815546 1.547024
vn -0.9806 -0.1961 0.0000
vn 0.9806 0.1961 0.0000
vn -0.1387 0.6934 0.7071
vn -0.1387 0.6934 -0.7071
vn 0.1387 -0.6934 0.7071
vn -0.1567 0.7837 -0.6011
vn 0.1567 -0.7837 0.6011
vn 0.1387 -0.6934 -0.7071
vn 0.0470 -0.8625 0.5038
vn 0.0465 -0.8526 -0.5204
vn 0.9826 0.1854 0.0109
vn -0.9826 -0.1854 -0.0109
vn 0.9827 0.1850 -0.0113
vn -0.1602 0.8012 0.5766
vn -0.9827 -0.1850 0.0113
vn 0.1602 -0.8012 -0.5766
vn -0.0615 -0.7094 -0.7021
vn -0.0615 -0.7094 0.7021
vn -0.0470 0.8625 -0.5038
vn 0.9973 0.0471 0.0571
vn -0.9972 -0.0450 -0.0592
vn 0.9973 0.0475 -0.0567
vn -0.9972 -0.0453 0.0589
vn -0.0465 0.8526 0.5204
s off
f 3//1 4//1 8//1 7//1
f 5//2 6//2 2//2 1//2
f 9//3 10//3 11//3 12//3
f 2//2 10//2 9//2 1//2
f 4//4 11//4 10//4 2//4
f 3//1 12//1 11//1 4//1
f 1//5 9//5 12//5 3//5
f 14//6 15//6 27//6 25//6
f 8//1 14//1 13//1 7//1
f 6//4 15//4 14//4 8//4
f 5//2 16//2 15//2 6//2
f 7//5 13//5 16//5 5//5
f 16//7 13//7 26//7 28//7
f 7//1 18//1 17//1 3//1
f 5//8 19//8 18//8 7//8
f 1//2 20//2 19//2 5//2
f 3//3 17//3 20//3 1//3
f 21//4 22//4 23//4 24//4
f 4//1 22//1 21//1 8//1
f 2//3 23//3 22//3 4//3
f 6//2 24//2 23//2 2//2
f 8//8 21//8 24//8 6//8
f 28//9 26//9 34//9 36//9
f 29//10 31//10 39//10 37//10
f 19//11 20//11 32//11 31//11
f 17//12 18//12 29//12 30//12
f 15//13 16//13 28//13 27//13
f 20//14 17//14 30//14 32//14
f 13//15 14//15 25//15 26//15
f 18//16 19//16 31//16 29//16
f 34//17 33//17 35//17 36//17
f 38//18 37//18 39//18 40//18
f 25//19 27//19 35//19 33//19
f 31//20 32//20 40//20 39//20
f 30//21 29//21 37//21 38//21
f 27//22 28//22 36//22 35//22
f 26//23 25//23 33//23 34//23
f 32//24 30//24 38//24 40//24
g Cube.001_Cube.010
v 1.483851 1.218570 1.296909
v 1.483851 1.586395 1.257294
v 1.483851 1.218570 1.117007
v 1.483851 1.586395 1.077392
v 1.626629 1.218570 1.296909
v 1.626629 1.586395 1.257294
v 1.626629 1.218570 1.117007
v 1.626629 1.586395 1.077392
v 1.483851 0.599689 1.089902
v 1.483851 0.599689 1.269804
v 1.626629 0.599689 1.089902
v 1.626629 0.599689 1.269804
v -1.483851 1.218570 1.296909
v -1.483851 1.586395 1.257294
v -1.483851 1.218570 1.117007
v -1.483851 1.586395 1.077392
v -1.626629 1.218570 1.296909
v -1.626629 1.586395 1.257294
v -1.626629 1.218570 1.117007
v -1.626629 1.586395 1.077392
v -1.483851 0.599689 1.089902
v -1.483851 0.599689 1.269804
v -1.626629 0.599689 1.089902
v -1.626629 0.599689 1.269804
v 1.483851 1.218570 -1.296909
v 1.483851 1.586395 -1.257294
v 1.483851 1.218570 -1.117008
v 1.483851 1.586395 -1.077392
v 1.626629 1.218570 -1.296909
v 1.626629 1.586395 -1.257294
v 1.626629 1.218570 -1.117008
v 1.626629 1.586395 -1.077392
v 1.483851 0.599689 -1.089902
v 1.483851 0.599689 -1.269804
v 1.626629 0.599689 -1.089902
v 1.626629 0.599689 -1.269804
v -1.483851 1.218570 -1.296909
v -1.483851 1.586395 -1.257294
v -1.483851 1.218570 -1.117008
v -1.483851 1.586395 -1.077392
v -1.626629 1.218570 -1.296909
v -1.626629 1.586395 -1.257294
v -1.626629 1.218570 -1.117008
v -1.626629 1.586395 -1.077392
v -1.483851 0.599689 -1.089902
v -1.483851 0.599689 -1.269804
v -1.626629 0.599689 -1.089902
v -1.626629 0.599689 -1.269804
vn -1.0000 0.0000 0.0000
vn 0.0000 -0.1071 -0.9943
vn 1.0000 0.0000 0.0000
vn 0.0000 0.1071 0.9943
vn 0.0000 -0.0438 0.9990
vn 0.0000 1.0000 0.0000
vn 0.0000 -1.0000 0.0000
vn 0.0000 0.0438 -0.9990
vn 0.0000 -0.1071 0.9943
vn 0.0000 0.1071 -0.9943
vn 0.0000 -0.0438 -0.9990
vn 0.0000 0.0438 0.9990
s off
f 41//25 42//25 44//25 43//25
f 43//26 44//26 48//26 47//26
f 47//27 48//27 46//27 45//27
f 45//28 46//28 42//28 41//28
f 45//29 41//29 50//29 52//29
f 48//30 44//30 42//30 46//30
f 49//31 51//31 52//31 50//31
f 43//32 47//32 51//32 49//32
f 41//25 43//25 49//25 50//25
f 47//27 45//27 52//27 51//27
f 53//27 55//27 56//27 54//27
f 55//26 59//26 60//26 56//26
f 59//25 57//25 58//25 60//25
f 57//28 53//28 54//28 58//28
f 57//29 64//29 62//29 53//29
f 60//30 58//30 54//30 56//30
f 61//31 62//31 64//31 63//31
f 55//32 61//32 63//32 59//32
f 53//27 62//27 61//27 55//27
f 59//25 63//25 64//25 57//25
f 65//25 67//25 68//25 66//25
f 67//33 71//33 72//33 68//33
f 71//27 69//27 70//27 72//27
f 69//34 65//34 66//34 70//34
f 69//35 76//35 74//35 65//35
f 72//30 70//30 66//30 68//30
f 73//31 74//31 76//31 75//31
f 67//36 73//36 75//36 71//36
f 65//25 74//25 73//25 67//25
f 71//27 75//27 76//27 69//27
f 77//27 78//27 80//27 79//27
f 79//33 80//33 84//33 83//33
f 83//25 84//25 82//25 81//25
f 81//34 82//34 78//34 77//34
f 81//35 77//35 86//35 88//35
f 84//30 80//30 78//30 82//30
f 85//31 87//31 88//31 86//31
f 79//36 83//36 87//36 85//36
f 77//27 79//27 85//27 86//27
f 83//25 81//25 88//25 87//25
g Cube.005
v 1.457557 2.776209 -0.147437
v 1.486473 2.920783 0.000000
v 1.621663 2.743387 -0.147437
v 1.650579 2.887960 -0.000000
v 1.428641 2.631635 0.000000
v 1.457557 2.776209 0.147437
v 1.592747 2.598813 0.000000
v 1.621663 2.743387 0.147437
v 1.480680 2.891816 -0.265334
v 1.509596 3.036390 -0.117897
v 1.673702 3.003567 -0.117897
v 1.644786 2.858994 -0.265334
v 1.569625 2.483205 0.117897
v 1.598541 2.627779 0.265334
v 1.434435 2.660602 0.265334
v 1.405519 2.516028 0.117897
v 1.598541 2.627779 -0.265334
v 1.569625 2.483205 -0.117897
v 1.405519 2.516028 -0.117897
v 1.434435 2.660602 -0.265334
v 1.644786 2.858994 0.265334
v 1.673702 3.003567 0.117897
v 1.509596 3.036390 0.117897
v 1.480680 2.891816 0.265334
v 1.544491 2.314800 0.687454
v 1.515575 2.170227 0.540017
v 1.380386 2.347623 0.687454
v 1.351470 2.203049 0.540017
v 1.515575 2.170227 -0.567821
v 1.544491 2.314800 -0.715258
v 1.351470 2.203049 -0.567821
v 1.380386 2.347623 -0.715258
v 1.558384 1.861693 1.502683
v 1.556685 1.715636 1.355246
v 1.389277 1.847038 1.502683
v 1.387578 1.700981 1.355246
v 1.556685 1.684144 -1.399586
v 1.558384 1.830201 -1.547023
v 1.387578 1.669489 -1.399586
v 1.389277 1.815546 -1.547023
vn 0.9806 -0.1961 -0.0000
vn -0.9806 0.1961 0.0000
vn 0.1387 0.6934 -0.7071
vn 0.1387 0.6934 0.7071
vn -0.1387 -0.6934 -0.7071
vn 0.1567 0.7837 0.6011
vn -0.1567 -0.7837 -0.6011
vn -0.1387 -0.6934 0.7071
vn -0.0470 -0.8625 -0.5038
vn -0.0465 -0.8526 0.5204
vn -0.9826 0.1854 -0.0109
vn 0.9826 -0.1854 0.0109
vn -0.9827 0.1850 0.0113
vn 0.1602 0.8012 -0.5766
vn 0.9827 -0.1850 -0.0113
vn -0.1602 -0.8012 0.5766
vn 0.0615 -0.7094 0.7021
vn 0.0615 -0.7094 -0.7021
vn 0.0470 0.8625 0.5038
vn -0.9973 0.0471 -0.0571
vn 0.9972 -0.0450 0.0592
vn -0.9973 0.0475 0.0567
vn 0.9972 -0.0453 -0.0589
vn 0.0465 0.8526 -0.5205
s off
f 91//37 92//37 96//37 95//37
f 93//38 94//38 90//38 89//38
f 97//39 98//39 99//39 100//39
f 90//38 98//38 97//38 89//38
f 92//40 99//40 98//40 90//40
f 91//37 100//37 99//37 92//37
f 89//41 97//41 100//41 91//41
f 102//42 103//42 115//42 113//42
f 96//37 102//37 101//37 95//37
f 94//40 103//40 102//40 96//40
f 93//38 104//38 103//38 94//38
f 95//41 101//41 104//41 93//41
f 104//43 101//43 114//43 116//43
f 95//37 106//37 105//37 91//37
f 93//44 107//44 106//44 95//44
f 89//38 108//38 107//38 93//38
f 91//39 105//39 108//39 89//39
f 109//40 110//40 111//40 112//40
f 92//37 110//37 109//37 96//37
f 90//39 111//39 110//39 92//39
f 94//38 112//38 111//38 90//38
f 96//44 109//44 112//44 94//44
f 116//45 114//45 122//45 124//45
f 117//46 119//46 127//46 125//46
f 107//47 108//47 120//47 119//47
f 105//48 106//48 117//48 118//48
f 103//49 104//49 116//49 115//49
f 108//50 105//50 118//50 120//50
f 101//51 102//51 113//51 114//51
f 106//52 107//52 119//52 117//52
f 122//53 121//53 123//53 124//53
f 126//54 125//54 127//54 128//54
f 113//55 115//55 123//55 121//55
f 119//56 120//56 128//56 127//56
f 118//57 117//57 125//57 126//57
f 115//58 116//58 124//58 123//58
f 114//59 113//59 121//59 122//59
f 120//60 118//60 126//60 128//60
g Cube.008
v -1.655483 1.594346 1.273314
v -1.655483 1.777545 1.273314
v -1.655483 1.587467 -1.278740
v -1.655483 1.784424 -1.278740
v 1.655483 1.576881 1.287532
v 1.655483 1.795010 1.287532
v 1.623229 1.579664 -1.316287
v 1.623229 1.792227 -1.316287
v 1.523614 1.823530 -1.149128
v 1.563546 1.548361 -1.179660
v -1.482155 1.823530 -1.149128
v -1.522087 1.548361 -1.179660
v -1.482155 1.823530 1.149128
v -1.522087 1.548361 1.179660
v 1.523614 1.823530 1.149128
v 1.563546 1.548361 1.179660
v 1.410269 1.579039 1.316287
v 1.410269 1.792852 1.316287
v 1.265209 1.823530 1.149128
v 1.298276 1.548361 1.179660
v 1.655483 1.576881 1.084133
v 1.655483 1.795010 1.084133
v 1.563546 1.548361 0.945834
v 1.523614 1.823530 0.921353
v 1.655483 1.582439 -1.113050
v 1.655483 1.789452 -1.113050
v 1.563546 1.548361 -0.967430
v 1.523614 1.823530 -0.942391
v 1.403884 1.579664 -1.316287
v 1.403884 1.792227 -1.316287
v 1.265925 1.823530 -1.149128
v 1.299010 1.548361 -1.179660
v -1.471397 1.785757 1.316287
v -1.318518 1.548361 1.179660
v -1.471397 1.586134 1.316287
v -1.283854 1.823530 1.149128
v -1.471182 1.582545 -1.316287
v -1.471182 1.789346 -1.316287
v -1.285035 1.823530 -1.149128
v -1.319730 1.548361 -1.179660
v -1.655483 1.587467 -1.115593
v -1.655483 1.784424 -1.115593
v -1.482155 1.823530 -0.941142
v -1.522087 1.548361 -0.966148
v -1.655483 1.594346 1.101088
v -1.655483 1.777545 1.101088
v -1.482155 1.823530 0.923742
v -1.522087 1.548361 0.948286
v -1.655483 1.557729 1.058115
v -1.621134 1.586134 1.316287
v -1.621134 1.785757 1.316287
v -1.655483 1.814162 1.058115
v -1.655483 1.557729 1.316287
v -1.655483 1.814162 1.316287
v -1.437048 1.814162 1.316287
v -1.437048 1.557729 1.316287
v -1.655483 1.814162 -1.078046
v -1.622651 1.789346 -1.316287
v -1.622651 1.582545 -1.316287
v -1.655483 1.557729 -1.078046
v -1.655483 1.814162 -1.316287
v -1.655483 1.557729 -1.316287
v -1.438349 1.557729 -1.316287
v -1.438349 1.814162 -1.316287
v 1.371629 1.814162 -1.316287
v 1.655483 1.789452 -1.282714
v 1.655483 1.582439 -1.282714
v 1.371629 1.557729 -1.316287
v 1.655483 1.814162 -1.316287
v 1.655483 1.557729 -1.316287
v 1.655483 1.557729 -1.079477
v 1.655483 1.814162 -1.079477
v 1.655483 1.814162 1.055379
v 1.616056 1.792852 1.316287
v 1.616056 1.579039 1.316287
v 1.655483 1.557729 1.055379
v 1.655483 1.814162 1.316287
v 1.655483 1.557729 1.316287
v 1.370842 1.557729 1.316287
v 1.370842 1.814162 1.316287
v -1.768682 1.584744 1.092061
v -1.768682 1.584744 1.282341
v -1.768682 1.787147 1.282341
v -1.768682 1.787147 1.092061
v -1.768682 1.799564 -1.103052
v -1.768682 1.799564 -1.291281
v -1.768682 1.572327 -1.291281
v -1.768682 1.572327 -1.103052
v 1.768682 1.802895 -1.293731
v 1.768682 1.568996 -1.293731
v 1.768682 1.568996 -1.102032
v 1.768682 1.802895 -1.102032
v 1.768682 1.813635 1.066766
v 1.768682 1.813635 1.304900
v 1.768682 1.558256 1.304900
v 1.768682 1.558256 1.066766
v -1.628573 1.576217 1.510595
v -1.628573 1.795674 1.510595
v -1.463958 1.795674 1.510595
v -1.463958 1.576217 1.510595
v -1.634849 1.806001 -1.510595
v -1.634849 1.565890 -1.510595
v -1.458983 1.565890 -1.510595
v -1.458983 1.806001 -1.510595
v 1.390029 1.805654 -1.510595
v 1.637084 1.805654 -1.510595
v 1.637084 1.566237 -1.510595
v 1.390029 1.566237 -1.510595
v 1.628386 1.805662 1.510595
v 1.628386 1.566229 1.510595
v 1.397939 1.566229 1.510595
v 1.397939 1.805662 1.510595
vn -0.1516 0.0000 -0.9884
vn -0.9980 0.0000 -0.0633
vn -0.0969 0.0000 0.9953
vn 0.0000 0.9978 -0.0658
vn 0.0000 -0.9977 -0.0684
vn 0.0709 0.9975 0.0000
vn -0.9896 -0.1436 0.0000
vn 0.0000 -0.1103 0.9939
vn 0.9896 -0.1436 0.0000
vn -0.0540 0.9985 0.0000
vn -0.0701 -0.9975 0.0000
vn 0.0000 -0.1103 -0.9939
vn 0.0000 -0.9977 0.0684
vn 0.1014 -0.9948 0.0000
vn 0.0000 0.9984 -0.0560
vn 0.0000 0.9984 0.0560
vn -0.9975 0.0000 0.0711
vn 1.0000 0.0000 0.0000
vn -0.1624 -0.9867 0.0000
vn 0.0000 0.0000 -1.0000
vn 0.0000 0.0000 1.0000
vn 0.0000 -0.9978 -0.0658
vn -1.0000 0.0000 0.0000
vn -0.1179 0.9930 0.0000
vn 0.0845 -0.9964 0.0000
vn 0.0795 0.0000 0.9968
vn 0.1326 0.9912 0.0000
vn 0.0845 0.9964 0.0000
vn 0.1101 0.0000 -0.9939
vn 0.0795 0.0000 -0.9968
vn -0.0969 0.0000 -0.9953
vn 0.1326 -0.9912 0.0000
vn -0.1624 0.9867 0.0000
vn -0.1179 -0.9930 0.0000
vn 0.1101 0.0000 0.9939
vn -0.1517 0.0000 0.9884
vn -0.9993 0.0000 -0.0383
vn 0.0000 0.9987 -0.0510
vn -0.9980 0.0000 0.0627
vn 0.0000 0.9976 0.0689
vn 0.0000 -0.9987 -0.0510
vn 0.0000 -0.9963 0.0854
vn 0.9975 0.0000 0.0711
vn 0.9993 0.0000 -0.0383
vn 0.0000 0.9963 0.0854
vn 0.9980 0.0000 -0.0633
vn 0.0000 -0.9976 0.0689
vn 0.9980 0.0000 0.0627
s off
f 149//61 150//61 221//61 224//61
f 146//62 145//62 239//62 240//62
f 154//63 153//63 219//63 220//63
f 202//64 146//64 240//64 237//64
f 196//65 198//65 138//65 160//65
f 201//66 152//66 143//66 205//66
f 155//67 156//67 137//67 138//67
f 168//68 167//68 139//68 140//68
f 176//69 175//69 141//69 142//69
f 185//70 171//70 139//70 189//70
f 176//71 142//71 181//71 177//71
f 148//72 147//72 143//72 144//72
f 207//73 148//73 144//73 206//73
f 151//74 204//74 206//74 144//74
f 193//75 159//75 137//75 197//75
f 183//76 164//76 141//76 182//76
f 205//76 143//76 147//76 208//76
f 184//73 162//73 148//73 207//73
f 162//72 164//72 147//72 148//72
f 157//77 158//77 233//77 236//77
f 155//74 199//74 204//74 151//74
f 144//67 143//67 152//67 151//67
f 200//66 156//66 152//66 201//66
f 199//78 200//78 201//78 204//78
f 133//79 149//79 224//79 223//79
f 197//66 137//66 156//66 200//66
f 138//74 198//74 199//74 155//74
f 151//67 152//67 156//67 155//67
f 192//75 167//75 159//75 193//75
f 138//68 137//68 159//68 160//68
f 191//65 196//65 160//65 168//65
f 191//80 192//80 193//80 196//80
f 142//72 141//72 164//72 162//72
f 181//73 142//73 162//73 184//73
f 208//76 147//76 164//76 183//76
f 207//81 208//81 183//81 184//81
f 145//82 203//82 238//82 239//82
f 190//65 191//65 168//65 140//65
f 189//75 139//75 167//75 192//75
f 160//68 159//68 167//68 168//68
f 140//71 172//71 188//71 190//71
f 180//70 175//70 171//70 185//70
f 140//69 139//69 171//69 172//69
f 177//83 180//83 185//83 188//83
f 194//84 154//84 220//84 217//84
f 182//70 141//70 175//70 180//70
f 172//71 176//71 177//71 188//71
f 172//69 171//69 175//69 176//69
f 129//83 173//83 177//83 181//83
f 130//83 129//83 181//83 182//83
f 174//83 130//83 182//83 180//83
f 173//83 174//83 180//83 177//83
f 178//81 179//81 182//81 181//81
f 179//81 161//81 183//81 182//81
f 163//81 178//81 181//81 184//81
f 161//81 163//81 184//81 183//81
f 132//83 170//83 185//83 189//83
f 131//83 132//83 189//83 190//83
f 169//83 131//83 190//83 188//83
f 170//83 169//83 188//83 185//83
f 186//80 187//80 190//80 189//80
f 187//80 165//80 191//80 190//80
f 166//80 186//80 189//80 192//80
f 165//80 166//80 192//80 191//80
f 136//80 158//80 193//80 197//80
f 135//80 136//80 197//80 198//80
f 157//80 135//80 198//80 196//80
f 158//80 157//80 196//80 193//80
f 194//78 195//78 198//78 197//78
f 195//78 153//78 199//78 198//78
f 154//78 194//78 197//78 200//78
f 153//78 154//78 200//78 199//78
f 134//78 150//78 201//78 205//78
f 133//78 134//78 205//78 206//78
f 149//78 133//78 206//78 204//78
f 150//78 149//78 204//78 201//78
f 202//81 203//81 206//81 205//81
f 203//81 145//81 207//81 206//81
f 146//81 202//81 205//81 208//81
f 145//81 146//81 208//81 207//81
f 216//83 213//83 214//83 215//83
f 224//78 221//78 222//78 223//78
f 218//78 217//78 220//78 219//78
f 210//83 211//83 212//83 209//83
f 173//85 129//85 210//85 209//85
f 129//86 130//86 211//86 210//86
f 170//87 132//87 214//87 213//87
f 130//88 174//88 212//88 211//88
f 132//89 131//89 215//89 214//89
f 174//90 173//90 209//90 212//90
f 195//91 194//91 217//91 218//91
f 131//92 169//92 216//92 215//92
f 150//93 134//93 222//93 221//93
f 153//94 195//94 218//94 219//94
f 169//95 170//95 213//95 216//95
f 134//96 133//96 223//96 222//96
f 236//80 233//80 234//80 235//80
f 228//81 227//81 226//81 225//81
f 238//81 237//81 240//81 239//81
f 230//80 229//80 232//80 231//80
f 179//97 178//97 225//97 226//97
f 161//98 179//98 226//98 227//98
f 187//99 186//99 229//99 230//99
f 158//100 136//100 234//100 233//100
f 178//101 163//101 228//101 225//101
f 165//102 187//102 230//102 231//102
f 136//103 135//103 235//103 234//103
f 163//104 161//104 227//104 228//104
f 186//105 166//105 232//105 229//105
f 203//106 202//106 237//106 238//106
f 135//107 157//107 236//107 235//107
f 166//108 165//108 231//108 232//108
