# Blender v2.79 (sub 0) OBJ File: 'Building_2.blend'
# www.blender.org
g Cube.009
v -1.482738 0.599791 1.149573
v -1.476021 1.848144 1.144438
v -1.482738 0.599791 -1.149573
v -1.476021 1.848144 -1.144438
v 1.524196 0.599791 1.149573
v 1.517479 1.848144 1.144438
v 1.524196 0.599791 -1.149573
v 1.517479 1.848144 -1.144438
v -1.566600 1.223968 1.213696
v -1.566600 1.223968 -1.213696
v 1.608059 1.223968 -1.213696
v 1.608059 1.223968 1.213696
vn -0.9896 0.1436 0.0000
vn 0.0000 0.1103 -0.9939
vn 0.9896 0.1436 0.0000
vn 0.0000 0.1103 0.9939
vn 0.0000 -1.0000 0.0000
vn 0.0000 1.0000 0.0000
vn 0.0000 -0.1022 0.9948
vn 0.9911 -0.1332 0.0000
vn 0.0000 -0.1022 -0.9948
vn -0.9911 -0.1332 0.0000
s off
f 9//1 2//1 4//1 10//1
f 10//2 4//2 8//2 11//2
f 11//3 8//3 6//3 12//3
f 12//4 6//4 2//4 9//4
f 3//5 7//5 5//5 1//5
f 8//6 4//6 2//6 6//6
f 5//7 12//7 9//7 1//7
f 7//8 11//8 12//8 5//8
f 3//9 10//9 11//9 7//9
f 1//10 9//10 10//10 3//10
