# Blender v2.79 (sub 0) OBJ File: 'Building_2.blend'
# www.blender.org
g Cube
v 1.711922 0.127372 -1.379920
v 1.711922 0.127372 1.379920
v -1.711922 0.127372 1.379920
v -1.711921 0.127372 -1.379921
v 1.711923 0.596637 -1.379920
v 1.711921 0.596637 1.379921
v -1.711923 0.596637 1.379920
v -1.711922 0.596637 -1.379920
v 1.696426 0.362004 -1.343825
v 1.696425 0.362004 1.379921
v -1.696426 0.362004 1.379920
v -1.696425 0.362004 -1.343826
vn 0.0000 -1.0000 -0.0000
vn 0.0000 1.0000 0.0000
vn 0.9978 -0.0659 0.0000
vn -0.0000 -0.0000 1.0000
vn -0.9978 -0.0659 -0.0000
vn 0.0000 0.1520 -0.9884
vn 0.0000 -0.1520 -0.9884
vn -0.9978 0.0659 -0.0000
vn 0.9978 0.0659 0.0000
s off
f 1//1 2//1 3//1 4//1
f 5//2 8//2 7//2 6//2
f 9//3 5//3 6//3 10//3
f 10//4 6//4 7//4 11//4
f 11//5 7//5 8//5 12//5
f 9//6 1//6 4//6 12//6
f 5//7 9//7 12//7 8//7
f 3//8 11//8 12//8 4//8
f 2//4 10//4 11//4 3//4
f 1//9 9//9 10//9 2//9
