# Blender v2.79 (sub 0) OBJ File: 'Building_5.blend'
# www.blender.org
g Cube_Cube.003
v -2.933781 -0.534729 1.486042
v -2.933781 1.000000 1.486042
v -3.443744 -0.534729 -0.483573
v -3.443744 1.000000 -0.483573
v 2.933781 -0.534729 1.486042
v 2.933781 1.000000 1.486042
v 3.443744 -0.534729 -0.483573
v 3.443744 1.000000 -0.483573
v 0.000000 -0.534729 -1.000000
v 0.000000 1.000000 -1.000000
v 0.000000 -0.534729 1.000000
v 0.000000 1.000000 1.000000
v -3.266695 -0.534729 0.380163
v -3.266695 1.183590 0.380163
v 3.266695 -0.534729 0.380163
v 3.266695 1.183590 0.380163
v 0.000000 1.183590 -0.125714
v 0.000000 -0.534729 -0.125714
v -2.933781 0.910891 1.486042
v -3.443744 0.910891 -0.483573
v 3.443744 0.910891 -0.483573
v 2.933781 0.910891 1.486042
v 0.000000 0.910891 1.000000
v 0.000000 0.910891 -1.000000
v 3.266695 1.085646 0.380163
v -3.266695 1.085646 0.380163
v -2.933781 0.719338 2.818923
v -2.933781 0.808447 2.818923
v 0.000000 0.808447 2.332881
v 2.933781 0.808447 2.818923
v 2.933781 0.719338 2.818923
v 0.000000 0.719338 2.332881
v -3.407702 0.188081 -0.474895
v 3.407702 0.188081 -0.474895
v 2.903075 0.188081 1.474107
v -0.000000 0.188081 0.993152
v -0.000000 0.188081 -0.985916
v 3.232506 0.188081 0.379802
v -3.232506 0.188081 0.379802
v -2.903075 0.188081 1.474107
v 3.337288 1.183590 0.392055
v 3.004373 1.000000 1.497934
v 3.514337 1.000000 -0.471682
v 3.514337 0.910891 -0.471682
v 3.004373 0.910891 1.497934
v 3.004373 0.808447 2.830815
v 3.337288 1.085646 0.392055
v 3.004373 0.719338 2.830815
v -3.007964 0.910891 1.498538
v -3.007964 1.000000 1.498538
v -3.340879 1.183590 0.392660
v -3.517928 1.000000 -0.471077
v -3.517928 0.910891 -0.471077
v -3.340879 1.085646 0.392660
v -3.007964 0.719338 2.831420
v -3.007964 0.808447 2.831420
v 1.721872 0.950904 -0.741787
v 1.466890 -0.534729 1.243021
v 1.721872 -0.534729 -0.741787
v 1.466890 0.950904 1.243021
v 1.633348 1.134495 0.127225
v 1.633348 -0.534729 0.127225
v 1.466890 0.861795 1.243021
v 1.721872 0.861795 -0.741787
v 1.466890 0.759351 2.575902
v 1.466890 0.670242 2.575902
v 1.703851 0.188081 -0.730405
v 1.451538 0.188081 1.233629
v -1.721872 -0.534729 -0.741787
v -1.466890 0.950904 1.243021
v -1.721872 0.950904 -0.741787
v -1.466890 -0.534729 1.243021
v -1.633348 -0.534729 0.127225
v -1.633348 1.134495 0.127225
v -1.721872 0.861795 -0.741787
v -1.466890 0.861795 1.243021
v -1.466890 0.759351 2.575902
v -1.466890 0.670242 2.575902
v -1.451538 0.188081 1.233629
v -1.703851 0.188081 -0.730405
vn 0.0263 0.9874 0.1560
vn 0.1483 0.0000 -0.9889
vn 0.0240 -0.9895 -0.1422
vn 0.0096 -0.9898 -0.1422
vn 0.0000 -1.0000 0.0000
vn 0.0554 0.9870 0.1507
vn 0.0053 0.9868 0.1620
vn -0.0263 0.9874 0.1560
vn -0.1483 0.0000 -0.9889
vn 0.0595 0.9774 -0.2028
vn -0.0029 0.9784 -0.2069
vn -0.0323 -0.9809 0.1918
vn 0.0323 -0.9809 0.1918
vn -0.9576 -0.0405 0.2851
vn 0.9780 -0.0413 0.2047
vn -0.1480 -0.0199 -0.9888
vn -0.1636 -0.0097 0.9865
vn 0.1633 -0.0097 0.9865
vn 0.9576 -0.0405 0.2851
vn 0.1486 -0.0200 -0.9887
vn -0.9780 -0.0413 0.2047
vn 0.1634 0.0000 0.9866
vn -0.1634 0.0000 0.9866
vn 0.0566 0.9882 0.1420
vn 0.0240 0.9895 0.1422
vn 0.0566 -0.9882 -0.1420
vn 0.0096 0.9898 0.1422
vn -0.9786 0.0464 0.2006
vn 0.1483 0.0193 -0.9888
vn 0.9566 0.0454 0.2880
vn 0.1634 0.0093 0.9865
vn -0.1634 0.0093 0.9865
vn -0.1483 0.0193 -0.9888
vn 0.9786 0.0464 0.2006
vn -0.9566 0.0454 0.2880
vn 0.9576 0.0000 0.2883
vn 1.0000 0.0000 0.0000
vn 0.9796 0.0000 0.2008
vn -0.1661 0.0000 0.9861
vn -0.0240 0.9895 0.1422
vn 0.0250 -0.9886 -0.1487
vn 0.0339 0.9790 -0.2011
vn 0.1661 0.0000 -0.9861
vn -0.9796 0.0000 0.2008
vn -0.9576 0.0000 0.2883
vn -1.0000 0.0000 0.0000
vn 0.1661 0.0000 0.9861
vn -0.0240 -0.9895 -0.1422
vn -0.0339 0.9790 -0.2011
vn -0.1661 0.0000 -0.9861
vn -0.0250 -0.9886 -0.1487
vn -0.0566 0.9882 0.1420
vn -0.0096 -0.9898 -0.1422
vn 0.1480 -0.0199 -0.9888
vn -0.1633 -0.0097 0.9865
vn 0.0029 0.9784 -0.2069
vn -0.0554 0.9870 0.1507
vn -0.0096 0.9898 0.1422
vn 0.1636 -0.0097 0.9865
vn -0.1486 -0.0200 -0.9887
vn -0.0595 0.9774 -0.2028
vn -0.0053 0.9868 0.1620
vn -0.0566 -0.9882 -0.1420
s off
f 2//1 14//1 51//1 50//1
f 64//2 57//2 8//2 21//2
f 31//3 22//3 45//3 48//3
f 76//4 23//4 32//4 78//4
f 62//5 15//5 5//5 58//5
f 74//6 14//6 2//6 70//6
f 61//7 17//7 12//7 60//7
f 73//5 18//5 11//5 72//5
f 16//8 6//8 42//8 41//8
f 75//9 71//9 10//9 24//9
f 69//5 9//5 18//5 73//5
f 57//10 10//10 17//10 61//10
f 71//11 4//11 14//11 74//11
f 59//5 7//5 15//5 62//5
f 25//12 21//12 44//12 47//12
f 20//13 26//13 54//13 53//13
f 40//14 19//14 26//14 39//14
f 34//15 21//15 25//15 38//15
f 80//16 75//16 24//16 37//16
f 68//17 63//17 23//17 36//17
f 79//18 76//18 19//18 40//18
f 38//19 25//19 22//19 35//19
f 67//20 64//20 21//20 34//20
f 39//21 26//21 20//21 33//21
f 78//22 77//22 28//22 27//22
f 66//23 65//23 29//23 32//23
f 70//24 2//24 28//24 77//24
f 28//25 2//25 50//25 56//25
f 63//26 22//26 31//26 66//26
f 60//27 12//27 29//27 65//27
f 13//28 39//28 33//28 3//28
f 59//29 67//29 34//29 7//29
f 15//30 38//30 35//30 5//30
f 72//31 79//31 40//31 1//31
f 58//32 68//32 36//32 11//32
f 69//33 80//33 37//33 9//33
f 7//34 34//34 38//34 15//34
f 1//35 40//35 39//35 13//35
f 47//36 41//36 42//36 45//36
f 45//37 42//37 46//37 48//37
f 44//38 43//38 41//38 47//38
f 30//39 31//39 48//39 46//39
f 6//40 30//40 46//40 42//40
f 22//41 25//41 47//41 45//41
f 8//42 16//42 41//42 43//42
f 21//43 8//43 43//43 44//43
f 54//44 51//44 52//44 53//44
f 49//45 50//45 51//45 54//45
f 50//46 49//46 55//46 56//46
f 27//47 28//47 56//47 55//47
f 19//48 27//48 55//48 49//48
f 14//49 4//49 52//49 51//49
f 4//50 20//50 53//50 52//50
f 26//51 19//51 49//51 54//51
f 5//32 35//32 68//32 58//32
f 9//29 37//29 67//29 59//29
f 6//52 60//52 65//52 30//52
f 23//53 63//53 66//53 32//53
f 31//23 30//23 65//23 66//23
f 37//54 24//54 64//54 67//54
f 35//55 22//55 63//55 68//55
f 9//5 59//5 62//5 18//5
f 8//56 57//56 61//56 16//56
f 16//57 61//57 60//57 6//57
f 18//5 62//5 58//5 11//5
f 24//2 10//2 57//2 64//2
f 3//33 33//33 80//33 69//33
f 11//31 36//31 79//31 72//31
f 12//58 70//58 77//58 29//58
f 32//22 29//22 77//22 78//22
f 36//59 23//59 76//59 79//59
f 33//60 20//60 75//60 80//60
f 10//61 71//61 74//61 17//61
f 3//5 69//5 73//5 13//5
f 20//9 4//9 71//9 75//9
f 13//5 73//5 72//5 1//5
f 17//62 74//62 70//62 12//62
f 19//63 76//63 78//63 27//63
