# Blender v2.79 (sub 0) OBJ File: 'Building_3.blend'
# www.blender.org
g Cube.002
v -1.528502 1.839893 1.447647
v -1.528503 2.944213 0.062971
v -1.528502 1.839893 -1.447647
v -1.528503 2.944213 -0.062970
v 1.530019 1.839893 1.447647
v 1.530019 2.944213 0.062971
v 1.530019 1.839893 -1.447647
v 1.530019 2.944213 -0.062970
v -1.433274 2.424407 0.589872
v -1.433274 2.424407 -0.589872
v 1.434791 2.424407 -0.589872
v 1.434791 2.424407 0.589872
v 0.510512 1.839893 -1.447647
v -0.508995 1.839893 -1.447647
v -0.508995 2.651438 -0.062970
v 0.510512 2.651438 -0.062970
v -0.508995 1.839893 1.447647
v 0.510512 1.839893 1.447647
v 0.510512 2.651438 0.062971
v -0.508995 2.651438 0.062971
v 0.478769 2.352725 0.589872
v -0.477252 2.352725 0.589872
v -0.477252 2.352725 -0.589872
v 0.478769 2.352725 -0.589872
vn -0.9836 -0.1802 0.0000
vn -0.1457 0.7898 -0.5959
vn 0.9836 -0.1802 0.0000
vn 0.1457 0.7898 0.5959
vn 0.0000 -1.0000 0.0000
vn 0.2760 0.9612 0.0000
vn 0.0305 0.8410 0.5402
vn 0.9870 0.1608 0.0000
vn -0.0305 0.8410 -0.5402
vn -0.9870 0.1608 0.0000
vn 0.0305 0.8410 -0.5402
vn 0.0000 0.8583 -0.5131
vn -0.0305 0.8410 0.5402
vn 0.0000 0.8583 0.5131
vn -0.2760 0.9612 0.0000
vn 0.0000 1.0000 0.0000
vn -0.1457 0.7898 0.5959
vn 0.0000 0.8699 0.4932
vn 0.1457 0.7898 -0.5959
vn 0.0000 0.8699 -0.4932
s off
f 9//1 2//1 4//1 10//1
f 24//2 16//2 8//2 11//2
f 11//3 8//3 6//3 12//3
f 22//4 20//4 2//4 9//4
f 13//5 7//5 5//5 18//5
f 15//6 4//6 2//6 20//6
f 17//7 22//7 9//7 1//7
f 7//8 11//8 12//8 5//8
f 13//9 24//9 11//9 7//9
f 1//10 9//10 10//10 3//10
f 3//11 10//11 23//11 14//11
f 14//12 23//12 24//12 13//12
f 5//13 12//13 21//13 18//13
f 18//14 21//14 22//14 17//14
f 8//15 16//15 19//15 6//15
f 16//16 15//16 20//16 19//16
f 3//5 14//5 17//5 1//5
f 14//5 13//5 18//5 17//5
f 12//17 6//17 19//17 21//17
f 21//18 19//18 20//18 22//18
f 10//19 4//19 15//19 23//19
f 23//20 15//20 16//20 24//20
g Cube.013_Cube.014
v 0.478769 2.352725 0.589872
v -0.477252 2.352725 0.589872
v -0.477252 2.352725 -0.589872
v 0.478769 2.352725 -0.589872
v -1.446888 1.854399 -1.529261
v -0.062212 2.924863 -1.529261
v 1.448405 1.854399 -1.529261
v 0.063729 2.924863 -1.529261
v -1.446889 1.854399 1.529261
v -0.062212 2.924863 1.529261
v 1.448405 1.854399 1.529261
v 0.063729 2.924863 1.529261
v -0.589114 2.422518 -1.434032
v 0.590631 2.422518 -1.434032
v 0.590630 2.422518 1.434032
v -0.589114 2.422518 1.434032
v 0.063729 2.646649 -0.509754
v 0.063729 2.646649 0.509754
v -0.062212 2.646649 0.509754
v -0.062212 2.646649 -0.509754
v -1.446889 1.854399 1.426358
v -0.508097 1.854399 1.423383
v -0.592435 2.361361 0.589872
v -0.589114 2.363421 0.587499
v -0.485308 2.413082 0.484264
v -0.483757 2.413939 0.481897
v -0.483757 2.413939 -0.481897
v -0.485852 2.412782 -0.484232
v -0.589114 2.363313 -0.585958
v -0.592852 2.361392 -0.589872
v -1.446888 1.854399 -1.423383
v -0.508097 1.854399 -1.423383
v 0.509614 1.854399 1.423383
v 0.509614 1.854399 -1.423383
v 1.448405 1.854399 1.423383
v 0.487369 2.412782 0.484232
v 0.590631 2.363313 0.585958
v 0.594368 2.361392 0.589872
v 0.485274 2.413939 0.481897
v 0.063729 2.646649 0.071418
v -0.062212 2.646649 0.071418
v 0.063729 2.646649 -0.071418
v -0.062212 2.646649 -0.071418
v 0.485274 2.413939 -0.481897
v 0.593952 2.361361 -0.589872
v 1.448405 1.854399 -1.426358
v 0.486825 2.413082 -0.484264
v 0.590631 2.363421 -0.587499
vn 0.0748 -0.8648 0.4964
vn -0.0748 -0.8648 -0.4964
vn -0.0000 -0.8699 -0.4932
vn 0.0000 -0.8699 0.4932
vn 0.0000 -0.1863 -0.9825
vn 0.0000 -0.1863 0.9825
vn 0.0000 0.9647 0.2633
vn -0.0000 0.1653 0.9862
vn 0.0000 0.1653 -0.9862
vn 0.5511 0.8328 0.0519
vn -0.5511 0.8328 -0.0519
vn 0.0000 0.9647 -0.2633
vn 0.0000 1.0000 -0.0000
vn 0.0000 -1.0000 -0.0000
vn -0.5857 0.7983 -0.1403
vn 0.5857 0.7983 0.1403
vn -0.0085 -0.8547 -0.5190
vn -0.0652 -0.8698 0.4892
vn -0.5508 0.8330 0.0515
vn 0.5508 0.8330 -0.0515
vn 0.0085 -0.8547 0.5190
vn -0.0070 -0.8547 0.5191
vn -0.5857 0.7983 0.1403
vn 0.0000 -0.8583 0.5131
vn 0.4833 0.8755 -0.0000
vn 0.0652 -0.8698 -0.4892
vn -0.4833 0.8755 0.0000
vn 0.0070 -0.8547 -0.5191
vn 0.0000 -0.8583 -0.5131
vn 0.5857 0.7983 -0.1403
s off
f 28//21 69//21 72//21 71//21 68//21
f 26//22 47//22 48//22 49//22 50//22
f 25//23 26//23 50//23 65//23 64//23 63//23
f 27//24 28//24 68//24 66//24 67//24 51//24
f 37//25 30//25 32//25 38//25
f 39//26 36//26 34//26 40//26
f 41//27 32//27 30//27 44//27
f 35//28 39//28 40//28 33//28
f 29//29 37//29 38//29 31//29
f 31//30 38//30 72//30 69//30 70//30
f 33//31 40//31 48//31 47//31 45//31
f 36//32 42//32 43//32 34//32
f 42//33 64//33 65//33 43//33
f 31//34 70//34 58//34 56//34 55//34 29//34
f 40//35 34//35 43//35 49//35 48//35
f 38//36 32//36 41//36 71//36 72//36
f 47//37 26//37 46//37 45//37
f 54//38 27//38 51//38 52//38 53//38
f 55//39 54//39 53//39 37//39 29//39
f 59//40 62//40 61//40 39//40 35//40
f 69//41 28//41 58//41 70//41
f 56//42 27//42 54//42 55//42
f 53//43 52//43 44//43 30//43 37//43
f 58//44 28//44 27//44 56//44
f 67//33 66//33 41//33 44//33
f 60//45 63//45 64//45 42//45
f 66//45 68//45 71//45 41//45
f 62//46 25//46 63//46 60//46 61//46
f 52//47 51//47 67//47 44//47
f 65//47 50//47 49//47 43//47
f 45//34 46//34 57//34 59//34 35//34 33//34
f 57//48 25//48 62//48 59//48
f 46//49 26//49 25//49 57//49
f 61//50 60//50 42//50 36//50 39//50
