# Blender v2.79 (sub 0) OBJ File: 'Building_3.blend'
# www.blender.org
g Cube.009
v -1.392142 0.198735 1.315158
v -1.385830 1.865914 1.309282
v -1.392142 0.198735 -1.315158
v -1.385830 1.865914 -1.309282
v 1.433600 0.198735 1.315158
v 1.427288 1.865914 1.309282
v 1.433600 0.198735 -1.315158
v 1.427288 1.865914 -1.309282
v -1.315420 1.032325 1.243741
v -1.315420 1.032325 -1.243741
v 1.356878 1.032325 -1.243741
v 1.356878 1.032325 1.243741
vn -0.9965 -0.0842 0.0000
vn 0.0000 -0.0784 -0.9969
vn 0.9965 -0.0842 0.0000
vn 0.0000 -0.0784 0.9969
vn 0.0000 -1.0000 0.0000
vn 0.0000 1.0000 0.0000
vn 0.0000 0.0854 0.9964
vn 0.9958 0.0917 0.0000
vn 0.0000 0.0854 -0.9964
vn -0.9958 0.0917 0.0000
s off
f 9//1 2//1 4//1 10//1
f 10//2 4//2 8//2 11//2
f 11//3 8//3 6//3 12//3
f 12//4 6//4 2//4 9//4
f 3//5 7//5 5//5 1//5
f 8//6 4//6 2//6 6//6
f 5//7 12//7 9//7 1//7
f 7//8 11//8 12//8 5//8
f 3//9 10//9 11//9 7//9
f 1//10 9//10 10//10 3//10
