# Blender v2.79 (sub 0) OBJ File: 'Building_3.blend'
# www.blender.org
g Cube
v 1.443539 -0.454114 -1.290445
v 1.443539 -0.454114 1.334555
v -1.443540 -0.454114 1.334554
v -1.443539 -0.454114 -1.290446
v 1.492611 0.211012 -1.379920
v 1.492609 0.211012 1.379921
v -1.492610 0.211012 1.379920
v -1.492610 0.211012 -1.379920
v 1.479099 -0.121551 -1.343825
v 1.479098 -0.121551 1.379921
v -1.479099 -0.121551 1.379920
v -1.479098 -0.121551 -1.343826
vn 0.0000 -1.0000 0.0000
vn 0.0000 1.0000 0.0000
vn 0.9992 -0.0406 0.0000
vn -0.0000 -0.0000 1.0000
vn -0.9992 -0.0406 -0.0000
vn 0.0000 -0.1585 -0.9874
vn 0.0000 -0.1079 -0.9942
vn -0.9943 -0.1063 -0.0000
vn -0.0000 -0.1352 0.9908
vn 0.9943 -0.1063 0.0000
s off
f 1//1 2//1 3//1 4//1
f 5//2 8//2 7//2 6//2
f 9//3 5//3 6//3 10//3
f 10//4 6//4 7//4 11//4
f 11//5 7//5 8//5 12//5
f 9//6 1//6 4//6 12//6
f 5//7 9//7 12//7 8//7
f 3//8 11//8 12//8 4//8
f 2//9 10//9 11//9 3//9
f 1//10 9//10 10//10 2//10
