# Blender v2.78 (sub 0) OBJ File: 'Axe.blend'
# www.blender.org
g Cube_Cube.001
v -0.584024 -0.013819 0.253369
v -0.584024 0.013819 0.253369
v -0.584024 -0.013819 -0.253369
v -0.584024 0.013819 -0.253369
v 0.020374 -0.098031 0.173343
v 0.020374 0.098031 0.173343
v 0.020374 -0.098031 -0.173343
v 0.020374 0.098031 -0.173343
v 0.188110 0.098031 -0.173343
v 0.188110 -0.098031 -0.173343
v 0.188110 -0.098031 0.173343
v 0.188110 0.098031 0.173343
vn -1.0000 0.0000 0.0000
vn 0.1313 0.0000 -0.9913
vn 0.0000 0.0000 1.0000
vn 0.1313 0.0000 0.9913
vn -0.1380 -0.9904 0.0000
vn -0.1380 0.9904 0.0000
vn 1.0000 0.0000 0.0000
vn 0.0000 -1.0000 0.0000
vn 0.0000 1.0000 0.0000
vn 0.0000 0.0000 -1.0000
s off
f 1//1 2//1 4//1 3//1
f 3//2 4//2 8//2 7//2
f 6//3 5//3 11//3 12//3
f 5//4 6//4 2//4 1//4
f 3//5 7//5 5//5 1//5
f 8//6 4//6 2//6 6//6
f 10//7 9//7 12//7 11//7
f 5//8 7//8 10//8 11//8
f 8//9 6//9 12//9 9//9
f 7//10 8//10 9//10 10//10
g Cylinder_Cylinder.004
v -0.063643 0.000000 3.323406
v -0.000000 -0.000000 0.093562
v -0.063643 -0.063629 3.323406
v -0.000000 -0.064064 0.093562
v -0.019489 -0.055105 3.338601
v 0.036468 -0.055481 0.093562
v 0.012834 -0.031815 3.349725
v 0.063164 -0.032032 0.093562
v 0.024665 0.000000 3.353796
v 0.072936 -0.000000 0.093562
v 0.012834 0.031815 3.349725
v 0.063164 0.032032 0.093562
v -0.019489 0.055105 3.338601
v 0.036468 0.055481 0.093562
v -0.063643 0.063630 3.323406
v 0.000000 0.064064 0.093562
v -0.107796 0.055105 3.308210
v -0.036468 0.055481 0.093562
v -0.140119 0.031815 3.297086
v -0.063164 0.032032 0.093562
v -0.151950 0.000000 3.293015
v -0.072936 -0.000000 0.093562
v -0.140119 -0.031815 3.297086
v -0.063164 -0.032032 0.093562
v -0.107797 -0.055105 3.308210
v -0.036468 -0.055481 0.093562
v 0.000000 -0.064064 3.017622
v 0.036468 -0.055481 3.017622
v 0.063164 -0.032032 3.017622
v 0.072936 0.000000 3.017622
v 0.063164 0.032032 3.017622
v 0.036468 0.055481 3.017622
v 0.000000 0.064064 3.017622
v -0.036468 0.055481 3.017622
v -0.063164 0.032032 3.017622
v -0.072936 0.000000 3.017622
v -0.063164 -0.032032 3.017622
v -0.036468 -0.055481 3.017622
vt 0.7500 0.2500
vt 0.7500 0.4900
vt 0.8700 0.4578
vt 0.2500 0.2500
vt 0.3700 0.4578
vt 0.2500 0.4900
vt 0.0833 0.7500
vt 0.0833 1.0000
vt 0.0000 1.0000
vt 0.0000 0.7500
vt 0.9578 0.3700
vt 0.4578 0.3700
vt 0.1667 0.7500
vt 0.1667 1.0000
vt 0.0833 1.0000
vt 0.0833 0.7500
vt 0.9900 0.2500
vt 0.4900 0.2500
vt 0.2500 0.7500
vt 0.2500 1.0000
vt 0.1667 1.0000
vt 0.1667 0.7500
vt 0.9578 0.1300
vt 0.4578 0.1300
vt 0.3333 0.7500
vt 0.3333 1.0000
vt 0.2500 1.0000
vt 0.2500 0.7500
vt 0.8700 0.0422
vt 0.3700 0.0422
vt 0.4167 0.7500
vt 0.4167 1.0000
vt 0.3333 1.0000
vt 0.3333 0.7500
vt 0.7500 0.0100
vt 0.2500 0.0100
vt 0.5000 0.7500
vt 0.5000 1.0000
vt 0.4167 1.0000
vt 0.4167 0.7500
vt 0.6300 0.0422
vt 0.1300 0.0422
vt 0.5833 0.7500
vt 0.5833 1.0000
vt 0.5000 1.0000
vt 0.5000 0.7500
vt 0.5422 0.1300
vt 0.0422 0.1300
vt 0.6667 0.7500
vt 0.6667 1.0000
vt 0.5833 1.0000
vt 0.5833 0.7500
vt 0.5100 0.2500
vt 0.0100 0.2500
vt 0.7500 0.7500
vt 0.7500 1.0000
vt 0.6667 1.0000
vt 0.6667 0.7500
vt 0.5422 0.3700
vt 0.0422 0.3700
vt 0.8333 0.7500
vt 0.8333 1.0000
vt 0.7500 1.0000
vt 0.7500 0.7500
vt 0.6300 0.4578
vt 0.1300 0.4578
vt 0.9167 0.7500
vt 0.9167 1.0000
vt 0.8333 1.0000
vt 0.8333 0.7500
vt 1.0000 0.7500
vt 1.0000 1.0000
vt 0.9167 1.0000
vt 0.9167 0.7500
vt 1.0000 0.5000
vt 0.9167 0.5000
vt 0.9167 0.5000
vt 0.8333 0.5000
vt 0.8333 0.5000
vt 0.7500 0.5000
vt 0.7500 0.5000
vt 0.6667 0.5000
vt 0.6667 0.5000
vt 0.5833 0.5000
vt 0.5833 0.5000
vt 0.5000 0.5000
vt 0.5000 0.5000
vt 0.4167 0.5000
vt 0.4167 0.5000
vt 0.3333 0.5000
vt 0.3333 0.5000
vt 0.2500 0.5000
vt 0.2500 0.5000
vt 0.1667 0.5000
vt 0.1667 0.5000
vt 0.0833 0.5000
vt 0.0833 0.5000
vt 0.0000 0.5000
vn -0.3254 0.0000 0.9456
vn -0.0000 0.0000 -1.0000
vn 0.2291 -0.9734 0.0000
vn 0.6599 -0.7513 0.0000
vn 0.9565 -0.2918 0.0000
vn 0.9565 0.2918 -0.0000
vn 0.6599 0.7513 -0.0000
vn 0.2291 0.9734 -0.0000
vn -0.2291 0.9734 -0.0000
vn -0.6599 0.7513 -0.0000
vn -0.9565 0.2918 -0.0000
vn -0.9565 -0.2918 0.0000
vn -0.6599 -0.7513 0.0000
vn -0.2291 -0.9734 0.0000
vn -0.1995 -0.9789 -0.0438
vn -0.5954 -0.7885 -0.1541
vn -0.9106 -0.3244 -0.2559
vn -0.9106 0.3244 -0.2559
vn -0.5954 0.7885 -0.1541
vn -0.1995 0.9789 -0.0438
vn 0.2003 0.9789 0.0395
vn 0.6062 0.7891 0.0994
vn 0.9355 0.3253 0.1381
vn 0.9355 -0.3253 0.1381
vn 0.6062 -0.7891 0.0994
vn 0.2003 -0.9789 0.0395
s off
f 13/1/11 15/2/11 17/3/11
f 14/4/12 18/5/12 16/6/12
f 39/7/13 16/8/13 18/9/13 40/10/13
f 13/1/11 17/3/11 19/11/11
f 14/4/12 20/12/12 18/5/12
f 40/13/14 18/14/14 20/15/14 41/16/14
f 13/1/11 19/11/11 21/17/11
f 14/4/12 22/18/12 20/12/12
f 41/19/15 20/20/15 22/21/15 42/22/15
f 13/1/11 21/17/11 23/23/11
f 14/4/12 24/24/12 22/18/12
f 42/25/16 22/26/16 24/27/16 43/28/16
f 13/1/11 23/23/11 25/29/11
f 14/4/12 26/30/12 24/24/12
f 43/31/17 24/32/17 26/33/17 44/34/17
f 13/1/11 25/29/11 27/35/11
f 14/4/12 28/36/12 26/30/12
f 44/37/18 26/38/18 28/39/18 45/40/18
f 13/1/11 27/35/11 29/41/11
f 14/4/12 30/42/12 28/36/12
f 45/43/19 28/44/19 30/45/19 46/46/19
f 13/1/11 29/41/11 31/47/11
f 14/4/12 32/48/12 30/42/12
f 46/49/20 30/50/20 32/51/20 47/52/20
f 13/1/11 31/47/11 33/53/11
f 14/4/12 34/54/12 32/48/12
f 47/55/21 32/56/21 34/57/21 48/58/21
f 13/1/11 33/53/11 35/59/11
f 14/4/12 36/60/12 34/54/12
f 48/61/22 34/62/22 36/63/22 49/64/22
f 13/1/11 35/59/11 37/65/11
f 14/4/12 38/66/12 36/60/12
f 49/67/23 36/68/23 38/69/23 50/70/23
f 13/1/11 37/65/11 15/2/11
f 14/4/12 16/6/12 38/66/12
f 50/71/24 38/72/24 16/73/24 39/74/24
f 37/75/25 50/71/25 39/74/25 15/76/25
f 35/77/26 49/67/26 50/70/26 37/78/26
f 33/79/27 48/61/27 49/64/27 35/80/27
f 31/81/28 47/55/28 48/58/28 33/82/28
f 29/83/29 46/49/29 47/52/29 31/84/29
f 27/85/30 45/43/30 46/46/30 29/86/30
f 25/87/31 44/37/31 45/40/31 27/88/31
f 23/89/32 43/31/32 44/34/32 25/90/32
f 21/91/33 42/25/33 43/28/33 23/92/33
f 19/93/34 41/19/34 42/22/34 21/94/34
f 17/95/35 40/13/35 41/16/35 19/96/35
f 15/97/36 39/7/36 40/10/36 17/98/36
