# Blender v2.79 (sub 0) OBJ File: 'Fence_1.blend'
# www.blender.org
g Cube
v -0.025112 -1.395403 -0.100106
v -0.025112 -1.395403 0.100106
v -0.225324 -1.395403 0.100106
v -0.225324 -1.395403 -0.100106
v 0.128103 1.395403 -0.128103
v 0.128103 1.395403 0.128103
v -0.128103 1.395403 0.128103
v -0.128103 1.395403 -0.128103
v 0.129549 -0.465134 -0.094773
v 0.223336 0.465134 -0.091539
v 0.129549 -0.465134 0.094773
v 0.223336 0.465134 0.091539
v -0.059997 -0.465134 0.094773
v 0.040259 0.465134 0.091539
v -0.059997 -0.465134 -0.094773
v 0.040259 0.465134 -0.091539
v 5.981255 -1.395403 -0.100106
v 5.981255 -1.395403 0.100106
v 5.781043 -1.395403 0.100106
v 5.781043 -1.395403 -0.100106
v 5.874571 1.395403 -0.118640
v 5.874571 1.395403 0.118640
v 5.637290 1.395403 0.118640
v 5.637290 1.395403 -0.118640
v 5.815928 -0.465134 -0.094773
v 5.715672 0.465134 -0.091539
v 5.815928 -0.465134 0.094773
v 5.715672 0.465134 0.091539
v 5.626382 -0.465134 0.094773
v 5.532594 0.465134 0.091539
v 5.626382 -0.465134 -0.094773
v 5.532594 0.465134 -0.091539
v -0.562324 -0.943150 0.335809
v -0.562324 -0.147619 0.335809
v -0.562324 -0.943150 0.129101
v -0.562324 -0.147619 0.129101
v 6.178432 -0.943150 0.335809
v 6.178432 -0.147619 0.335809
v 6.178432 -0.943150 0.129101
v 6.178432 -0.147619 0.129101
v -0.562324 0.395452 0.325677
v -0.562324 1.112998 0.325677
v -0.562324 0.395452 0.139233
v -0.562324 1.112998 0.139233
v 6.178432 0.356460 0.335809
v 6.178432 1.151991 0.335809
v 6.178432 0.356460 0.129101
v 6.178432 1.151991 0.129101
v 4.493243 0.416206 0.095771
v 2.808054 0.412881 0.046052
v 1.122865 0.356460 0.087226
v 1.122865 1.151991 0.087226
v 2.808054 1.095569 0.046052
v 4.493243 1.092245 0.095771
v 1.122865 0.335641 0.293933
v 2.808054 0.412881 0.223439
v 4.493243 0.416206 0.271430
v 4.493243 1.092245 0.271430
v 2.808054 1.095569 0.223439
v 1.122865 1.172810 0.293933
v 3.799509 -0.896414 0.141245
v 1.816598 -0.896414 0.099370
v 1.816598 -0.194356 0.099370
v 3.799509 -0.194356 0.141245
v 1.816598 -0.896414 0.281789
v 3.799509 -0.896414 0.323665
v 3.799509 -0.194356 0.323665
v 1.816598 -0.194356 0.281789
v -0.666605 -0.545385 0.335809
v -0.666605 -0.545385 0.129101
v 6.282712 -0.545385 0.129101
v 6.282712 -0.545385 0.335809
v 3.830185 -0.545385 0.323665
v 1.785922 -0.545385 0.281789
v 1.785922 -0.545385 0.099370
v 3.830185 -0.545385 0.141245
v -0.649514 0.754225 0.325677
v -0.649514 0.754225 0.139233
v 6.131250 0.754225 0.129101
v 6.131250 0.754225 0.335809
v 4.493243 0.754225 0.271430
v 2.808054 0.754225 0.223439
v 1.122865 0.754225 0.293933
v 1.122865 0.754225 0.087226
v 2.808054 0.754225 0.046052
v 4.493243 0.754225 0.095771
vt 0.987427 0.329514
vt 0.861151 0.329514
vt 0.861151 0.203238
vt 0.987427 0.203238
vt 0.860873 0.364830
vt 0.699281 0.364830
vt 0.699281 0.203238
vt 0.860873 0.203238
vt 0.222949 0.006908
vt 0.337749 0.006908
vt 0.337749 0.112037
vt 0.222949 0.112037
vt 0.337749 0.283466
vt 0.222949 0.283466
vt 0.337749 0.453582
vt 0.222949 0.453582
vt 0.144498 0.560739
vt 0.011034 0.560739
vt 0.011034 0.453582
vt 0.144498 0.453582
vt 0.337749 0.560739
vt 0.222949 0.560739
vt 0.011034 0.283466
vt 0.144498 0.283466
vt 0.011034 0.112037
vt 0.144498 0.112037
vt 0.011034 0.006908
vt 0.144498 0.006908
vt 0.989615 0.163699
vt 0.857306 0.163699
vt 0.857306 0.031390
vt 0.989615 0.031390
vt 0.700210 0.031390
vt 0.857015 0.031390
vt 0.857015 0.188195
vt 0.700210 0.188195
vt 0.465842 0.286566
vt 0.360232 0.286566
vt 0.360232 0.115137
vt 0.465842 0.115137
vt 0.360232 0.010008
vt 0.465842 0.010008
vt 0.465842 0.563840
vt 0.360232 0.563840
vt 0.360232 0.456682
vt 0.465842 0.456682
vt 0.547181 0.286566
vt 0.683233 0.286566
vt 0.683233 0.456682
vt 0.547181 0.456682
vt 0.683233 0.563840
vt 0.547181 0.563840
vt 0.683233 0.115137
vt 0.547181 0.115137
vt 0.547181 0.010008
vt 0.683233 0.010008
vt 0.823065 0.677656
vt 0.823065 0.591246
vt 0.995802 0.591246
vt 0.995802 0.677656
vt 0.059420 0.650867
vt 0.021800 0.650867
vt 0.021800 0.592703
vt 0.059420 0.592703
vt 0.811805 0.680756
vt 0.811805 0.770256
vt 0.632890 0.770256
vt 0.632890 0.680756
vt 0.380033 0.704678
vt 0.452026 0.704678
vt 0.452026 0.765513
vt 0.380033 0.765513
vt 0.127697 0.650867
vt 0.127697 0.592703
vt 0.297950 0.592703
vt 0.297950 0.650867
vt 0.608823 0.704678
vt 0.608823 0.765513
vt 0.853912 0.461050
vt 0.853912 0.379537
vt 0.993744 0.379537
vt 0.993744 0.461050
vt 0.548378 0.931163
vt 0.620864 0.931163
vt 0.620864 0.992601
vt 0.548378 0.992601
vt 0.853647 0.469881
vt 0.853647 0.560224
vt 0.698618 0.560224
vt 0.698618 0.469881
vt 0.243283 0.842413
vt 0.169195 0.842413
vt 0.169195 0.793854
vt 0.243283 0.793854
vt 0.486360 0.931163
vt 0.486360 0.992601
vt 0.318849 0.992601
vt 0.318849 0.931163
vt 0.010080 0.842413
vt 0.010080 0.793854
vt 0.010080 0.992601
vt 0.010080 0.931163
vt 0.169195 0.931163
vt 0.169195 0.992601
vt 0.010080 0.882678
vt 0.169195 0.882678
vt 0.486360 0.793854
vt 0.486360 0.842413
vt 0.318849 0.842413
vt 0.318849 0.793854
vt 0.486360 0.882678
vt 0.318849 0.882678
vt 0.243283 0.992601
vt 0.243283 0.931163
vt 0.243283 0.882678
vt 0.548378 0.793854
vt 0.620864 0.793854
vt 0.620864 0.842413
vt 0.548378 0.842413
vt 0.620864 0.882678
vt 0.548378 0.882678
vt 0.608823 0.592703
vt 0.608823 0.650867
vt 0.452026 0.650867
vt 0.452026 0.592703
vt 0.127697 0.765513
vt 0.127697 0.704678
vt 0.297950 0.704678
vt 0.297950 0.765513
vt 0.380033 0.592703
vt 0.380033 0.650867
vt 0.059420 0.765513
vt 0.021800 0.765513
vt 0.021800 0.704678
vt 0.059420 0.704678
vt 0.811805 0.591256
vt 0.632890 0.591256
vt 0.823065 0.764065
vt 0.995802 0.764065
vt 0.853647 0.379537
vt 0.698618 0.379537
vt 0.853912 0.542563
vt 0.993744 0.542563
vn 0.0000 -1.0000 0.0000
vn 0.0000 1.0000 -0.0000
vn 0.9948 0.1018 0.0000
vn -0.0000 -0.0393 0.9992
vn -0.9840 -0.1781 -0.0000
vn 0.0000 0.0057 -1.0000
vn 0.0000 -0.0393 -0.9992
vn 0.0000 0.0035 -1.0000
vn -0.9846 0.1750 0.0000
vn -0.9942 0.1072 0.0000
vn -0.0000 0.0057 1.0000
vn -0.0000 0.0035 1.0000
vn 0.9865 -0.1640 0.0000
vn 0.9950 -0.1003 0.0000
vn 0.9857 -0.1684 0.0000
vn -0.0000 -0.0291 0.9996
vn -0.9937 0.1118 0.0000
vn 0.0000 -0.0291 -0.9996
vn -0.9865 -0.1640 0.0000
vn -0.9950 -0.1003 0.0000
vn 0.9846 0.1750 0.0000
vn 0.9942 0.1072 0.0000
vn -0.9673 0.2536 0.0000
vn -0.0050 -0.0009 -1.0000
vn 0.9673 0.2536 0.0000
vn 0.0223 -0.0040 0.9997
vn -0.0196 -0.9998 0.0000
vn 0.0196 0.9998 0.0000
vn -0.9717 0.2361 0.0000
vn 0.0201 -0.0013 -0.9998
vn 0.9930 -0.1178 0.0000
vn 0.0184 -0.0021 0.9998
vn -0.0354 -0.9994 0.0000
vn -0.0306 0.9981 -0.0529
vn -0.0354 0.9994 0.0000
vn 0.0020 1.0000 0.0000
vn 0.0378 0.9978 -0.0541
vn -0.0306 -0.9981 -0.0529
vn 0.0378 -0.9978 -0.0541
vn 0.0020 -1.0000 0.0000
vn -0.0388 0.0025 0.9992
vn -0.0285 0.0000 0.9996
vn 0.0418 0.0000 0.9991
vn -0.0301 0.0035 -0.9995
vn -0.0244 0.0000 -0.9997
vn 0.0295 0.0000 -0.9996
vn -0.0196 0.9998 0.0000
vn 0.0196 -0.9998 0.0000
vn -0.0050 -0.0009 1.0000
vn -0.0208 0.0000 0.9998
vn -0.0123 0.0022 -0.9999
vn 0.0208 -0.0000 -0.9998
vn -0.0123 -0.0022 -0.9999
vn -0.0050 0.0009 1.0000
vn 0.0223 0.0040 0.9997
vn 0.9673 -0.2536 0.0000
vn -0.0050 0.0009 -1.0000
vn -0.9673 -0.2536 0.0000
vn -0.0301 -0.0035 -0.9995
vn -0.0388 -0.0025 0.9992
vn 0.0184 0.0021 0.9998
vn 0.9930 0.1178 0.0000
vn 0.0201 0.0013 -0.9998
vn -0.9717 -0.2361 0.0000
s off
f 1/1/1 2/2/1 3/3/1 4/4/1
f 5/5/2 8/6/2 7/7/2 6/8/2
f 10/9/3 5/10/3 6/11/3 12/12/3
f 12/12/4 6/11/4 7/13/4 14/14/4
f 14/14/5 7/13/5 8/15/5 16/16/5
f 9/17/6 1/18/6 4/19/6 15/20/6
f 5/21/7 10/22/7 16/16/7 8/15/7
f 10/22/8 9/17/8 15/20/8 16/16/8
f 3/23/9 13/24/9 15/20/9 4/19/9
f 13/24/10 14/14/10 16/16/10 15/20/10
f 2/25/11 11/26/11 13/24/11 3/23/11
f 11/26/12 12/12/12 14/14/12 13/24/12
f 1/27/13 9/28/13 11/26/13 2/25/13
f 9/28/14 10/9/14 12/12/14 11/26/14
f 17/29/1 18/30/1 19/31/1 20/32/1
f 21/33/2 24/34/2 23/35/2 22/36/2
f 26/37/15 21/38/15 22/39/15 28/40/15
f 28/40/16 22/39/16 23/41/16 30/42/16
f 30/43/17 23/44/17 24/45/17 32/46/17
f 25/47/6 17/48/6 20/49/6 31/50/6
f 21/38/18 26/37/18 32/46/18 24/45/18
f 26/37/8 25/47/8 31/50/8 32/46/8
f 19/51/19 29/52/19 31/50/19 20/49/19
f 29/52/20 30/43/20 32/46/20 31/50/20
f 18/53/11 27/54/11 29/55/11 19/56/11
f 27/54/12 28/40/12 30/42/12 29/55/12
f 17/48/21 25/47/21 27/54/21 18/53/21
f 25/47/22 26/37/22 28/40/22 27/54/22
f 69/57/23 34/58/23 36/59/23 70/60/23
f 76/61/24 64/62/24 40/63/24 71/64/24
f 71/65/25 40/66/25 38/67/25 72/68/25
f 74/69/26 68/70/26 34/71/26 69/72/26
f 61/73/27 39/74/27 37/75/27 66/76/27
f 63/77/28 36/78/28 34/71/28 68/70/28
f 77/79/29 42/80/29 44/81/29 78/82/29
f 86/83/30 54/84/30 48/85/30 79/86/30
f 79/87/31 48/88/31 46/89/31 80/90/31
f 83/91/32 60/92/32 42/93/32 77/94/32
f 49/95/33 47/96/33 45/97/33 57/98/33
f 52/99/34 44/100/34 42/93/34 60/92/34
f 48/101/35 54/102/35 58/103/35 46/104/35
f 54/102/36 53/105/36 59/106/36 58/103/36
f 53/105/37 52/99/37 60/92/37 59/106/37
f 43/107/38 51/108/38 55/109/38 41/110/38
f 51/108/39 50/111/39 56/112/39 55/109/39
f 50/111/40 49/95/40 57/98/40 56/112/40
f 80/113/41 46/104/41 58/103/41 81/114/41
f 81/114/42 58/103/42 59/106/42 82/115/42
f 82/115/43 59/106/43 60/92/43 83/91/43
f 78/116/44 44/117/44 52/118/44 84/119/44
f 84/119/45 52/118/45 53/120/45 85/121/45
f 85/121/46 53/120/46 54/84/46 86/83/46
f 40/122/47 64/123/47 67/124/47 38/125/47
f 64/123/2 63/77/2 68/70/2 67/124/2
f 35/126/48 62/127/48 65/128/48 33/129/48
f 62/127/1 61/73/1 66/76/1 65/128/1
f 72/130/49 38/125/49 67/124/49 73/131/49
f 73/131/50 67/124/50 68/70/50 74/69/50
f 70/132/51 36/133/51 63/134/51 75/135/51
f 75/135/52 63/134/52 64/62/52 76/61/52
f 62/127/52 75/135/52 76/61/52 61/73/52
f 35/126/53 70/132/53 75/135/53 62/127/53
f 66/76/50 73/131/50 74/69/50 65/128/50
f 37/75/54 72/130/54 73/131/54 66/76/54
f 65/128/55 74/69/55 69/72/55 33/129/55
f 39/136/56 71/65/56 72/68/56 37/137/56
f 61/73/57 76/61/57 71/64/57 39/74/57
f 33/138/58 69/57/58 70/60/58 35/139/58
f 50/111/46 85/121/46 86/83/46 49/95/46
f 51/108/45 84/119/45 85/121/45 50/111/45
f 43/107/59 78/116/59 84/119/59 51/108/59
f 56/112/43 82/115/43 83/91/43 55/109/43
f 57/98/42 81/114/42 82/115/42 56/112/42
f 45/97/60 80/113/60 81/114/60 57/98/60
f 55/109/61 83/91/61 77/94/61 41/110/61
f 47/140/62 79/87/62 80/90/62 45/141/62
f 49/95/63 86/83/63 79/86/63 47/96/63
f 41/142/64 77/79/64 78/82/64 43/143/64
