# Blender v2.78 (sub 0) OBJ File: 'Hammer.blend'
# www.blender.org
g Cylinder_Cylinder.004
v 0.000000 0.000000 1.177046
v -0.000000 -0.000000 0.076662
v 0.000000 -0.072935 1.177046
v -0.000000 -0.072936 0.076662
v 0.036468 -0.063164 1.177046
v 0.036468 -0.063164 0.076662
v 0.063164 -0.036468 1.177046
v 0.063164 -0.036468 0.076662
v 0.072936 0.000000 1.177046
v 0.072936 -0.000000 0.076662
v 0.063164 0.036468 1.177046
v 0.063164 0.036468 0.076662
v 0.036468 0.063164 1.177046
v 0.036468 0.063164 0.076662
v 0.000000 0.072936 1.177046
v 0.000000 0.072935 0.076662
v -0.036468 0.063164 1.177046
v -0.036468 0.063164 0.076662
v -0.063164 0.036468 1.177046
v -0.063164 0.036468 0.076662
v -0.072936 0.000000 1.177046
v -0.072936 0.000000 0.076662
v -0.063164 -0.036468 1.177046
v -0.063164 -0.036468 0.076662
v -0.036468 -0.063164 1.177046
v -0.036468 -0.063164 0.076662
vt 0.7500 0.2500
vt 0.7500 0.4900
vt 0.8700 0.4578
vt 0.2500 0.2500
vt 0.3700 0.4578
vt 0.2500 0.4900
vt 0.0833 0.5000
vt 0.0833 1.0000
vt 0.0000 1.0000
vt 0.0000 0.5000
vt 0.9578 0.3700
vt 0.4578 0.3700
vt 0.1667 0.5000
vt 0.1667 1.0000
vt 0.0833 1.0000
vt 0.0833 0.5000
vt 0.9900 0.2500
vt 0.4900 0.2500
vt 0.2500 0.5000
vt 0.2500 1.0000
vt 0.1667 1.0000
vt 0.1667 0.5000
vt 0.9578 0.1300
vt 0.4578 0.1300
vt 0.3333 0.5000
vt 0.3333 1.0000
vt 0.2500 1.0000
vt 0.2500 0.5000
vt 0.8700 0.0422
vt 0.3700 0.0422
vt 0.4167 0.5000
vt 0.4167 1.0000
vt 0.3333 1.0000
vt 0.3333 0.5000
vt 0.7500 0.0100
vt 0.2500 0.0100
vt 0.5000 0.5000
vt 0.5000 1.0000
vt 0.4167 1.0000
vt 0.4167 0.5000
vt 0.6300 0.0422
vt 0.1300 0.0422
vt 0.5833 0.5000
vt 0.5833 1.0000
vt 0.5000 1.0000
vt 0.5000 0.5000
vt 0.5422 0.1300
vt 0.0422 0.1300
vt 0.6667 0.5000
vt 0.6667 1.0000
vt 0.5833 1.0000
vt 0.5833 0.5000
vt 0.5100 0.2500
vt 0.0100 0.2500
vt 0.7500 0.5000
vt 0.7500 1.0000
vt 0.6667 1.0000
vt 0.6667 0.5000
vt 0.5422 0.3700
vt 0.0422 0.3700
vt 0.8333 0.5000
vt 0.8333 1.0000
vt 0.7500 1.0000
vt 0.7500 0.5000
vt 0.6300 0.4578
vt 0.1300 0.4578
vt 0.9167 0.5000
vt 0.9167 1.0000
vt 0.8333 1.0000
vt 0.8333 0.5000
vt 1.0000 0.5000
vt 1.0000 1.0000
vt 0.9167 1.0000
vt 0.9167 0.5000
vn -0.0000 0.0000 1.0000
vn 0.0000 0.0000 -1.0000
vn 0.2588 -0.9659 0.0000
vn 0.7071 -0.7071 0.0000
vn 0.9659 -0.2588 0.0000
vn 0.9659 0.2588 -0.0000
vn 0.7071 0.7071 -0.0000
vn 0.2588 0.9659 -0.0000
vn -0.2588 0.9659 -0.0000
vn -0.7071 0.7071 -0.0000
vn -0.9659 0.2588 -0.0000
vn -0.9659 -0.2588 0.0000
vn -0.7071 -0.7071 0.0000
vn -0.2588 -0.9659 0.0000
s off
f 1/1/1 3/2/1 5/3/1
f 2/4/2 6/5/2 4/6/2
f 3/7/3 4/8/3 6/9/3 5/10/3
f 1/1/1 5/3/1 7/11/1
f 2/4/2 8/12/2 6/5/2
f 5/13/4 6/14/4 8/15/4 7/16/4
f 1/1/1 7/11/1 9/17/1
f 2/4/2 10/18/2 8/12/2
f 7/19/5 8/20/5 10/21/5 9/22/5
f 1/1/1 9/17/1 11/23/1
f 2/4/2 12/24/2 10/18/2
f 9/25/6 10/26/6 12/27/6 11/28/6
f 1/1/1 11/23/1 13/29/1
f 2/4/2 14/30/2 12/24/2
f 11/31/7 12/32/7 14/33/7 13/34/7
f 1/1/1 13/29/1 15/35/1
f 2/4/2 16/36/2 14/30/2
f 13/37/8 14/38/8 16/39/8 15/40/8
f 1/1/1 15/35/1 17/41/1
f 2/4/2 18/42/2 16/36/2
f 15/43/9 16/44/9 18/45/9 17/46/9
f 1/1/1 17/41/1 19/47/1
f 2/4/2 20/48/2 18/42/2
f 17/49/10 18/50/10 20/51/10 19/52/10
f 1/1/1 19/47/1 21/53/1
f 2/4/2 22/54/2 20/48/2
f 19/55/11 20/56/11 22/57/11 21/58/11
f 1/1/1 21/53/1 23/59/1
f 2/4/2 24/60/2 22/54/2
f 21/61/12 22/62/12 24/63/12 23/64/12
f 1/1/1 23/59/1 25/65/1
f 2/4/2 26/66/2 24/60/2
f 23/67/13 24/68/13 26/69/13 25/70/13
f 1/1/1 25/65/1 3/2/1
f 2/4/2 4/6/2 26/66/2
f 25/71/14 26/72/14 4/73/14 3/74/14
g Cube
v -0.350024 -0.134189 0.134189
v -0.350024 0.134189 0.134189
v -0.350024 -0.134189 -0.134189
v -0.350024 0.134189 -0.134189
v 0.350024 -0.134189 0.134189
v 0.350024 0.134189 0.134189
v 0.350024 -0.134189 -0.134189
v 0.350024 0.134189 -0.134189
vn -1.0000 0.0000 0.0000
vn 0.0000 0.0000 -1.0000
vn 1.0000 0.0000 0.0000
vn 0.0000 0.0000 1.0000
vn 0.0000 -1.0000 0.0000
vn 0.0000 1.0000 0.0000
s off
f 27//15 28//15 30//15 29//15
f 29//16 30//16 34//16 33//16
f 33//17 34//17 32//17 31//17
f 31//18 32//18 28//18 27//18
f 29//19 33//19 31//19 27//19
f 34//20 30//20 28//20 32//20
