# Blender v2.78 (sub 0) OBJ File: 'StoneSmall_1.blend'
# www.blender.org
g Sphere
v 0.107298 0.024752 -0.423119
v 0.842704 0.691712 0.199844
v 1.115776 0.520629 0.300084
v 0.760194 0.156110 0.111214
v 0.118863 0.646204 0.843176
v 0.075830 0.264953 1.139064
v 0.101024 0.170625 0.880270
v 0.060872 -0.107515 0.121955
v 0.239052 0.957732 0.314785
v -0.624020 0.703947 0.132791
v -0.932440 0.441214 0.229853
v -0.528827 0.005814 0.296666
v 0.097701 0.933655 -0.366927
v 0.120283 0.618779 -0.581046
v 0.782656 0.153644 0.742412
v 0.938845 0.383316 0.959934
v 0.781232 0.660659 0.732026
vn 0.6379 -0.2214 -0.7376
vn 0.3828 0.9170 -0.1118
vn 0.3435 -0.9190 -0.1937
vn 0.6064 0.5116 -0.6088
vn 0.1624 -0.8361 0.5240
vn 0.2409 0.9107 0.3354
vn 0.1919 -0.9643 0.1827
vn 0.0920 0.6296 0.7715
vn -0.5246 -0.6316 0.5709
vn -0.3364 0.8427 0.4203
vn -0.0769 -0.9347 0.3469
vn -0.4786 0.6327 0.6088
vn -0.5963 -0.3806 -0.7068
vn -0.2870 0.9576 0.0257
vn -0.2533 -0.9349 -0.2484
vn -0.5978 0.4326 -0.6749
vn 0.6127 0.7563 0.2294
vn 0.7513 -0.6597 0.0185
s off
f 1//1 14//1 3//1 4//1
f 13//2 9//2 2//2
f 8//3 1//3 4//3
f 14//4 13//4 2//4 3//4
f 15//5 16//5 6//5 7//5
f 2//6 9//6 5//6 17//6
f 8//7 4//7 15//7 7//7
f 16//8 17//8 5//8 6//8
f 7//9 6//9 11//9 12//9
f 5//10 9//10 10//10
f 8//11 7//11 12//11
f 6//12 5//12 10//12 11//12
f 12//13 11//13 14//13 1//13
f 10//14 9//14 13//14
f 8//15 12//15 1//15
f 11//16 10//16 13//16 14//16
f 3//17 2//17 17//17 16//17
f 4//18 3//18 16//18 15//18
