# Blender v2.78 (sub 0) OBJ File: 'Stone_1.blend'
# www.blender.org
g Landscape
v -0.143841 -1.125000 -0.000000
v 0.465733 -0.843583 -0.189396
v 0.281007 -0.890487 0.523415
v -0.504870 -0.918671 0.539981
v -1.128796 -0.937477 -0.210477
v -0.087434 -0.886562 -0.644125
v -0.042474 -0.350004 -1.077203
v 0.912556 -0.325466 -0.309537
v 0.501587 -0.364400 0.907318
v -1.570383 -0.376318 0.936994
v -2.118444 -0.373693 -0.433454
v -0.744252 0.313726 -0.967043
v 0.548556 0.232384 -0.537287
v 0.023718 0.342140 0.759717
v -0.929005 0.347355 0.532316
v -1.672914 0.354845 -0.337478
v -0.179276 0.848245 -0.739411
v 0.433564 0.890083 -0.199836
v 0.251487 0.899844 0.609672
v -0.523057 0.839043 0.652997
v -0.773394 0.910201 -0.204353
v -0.106222 1.125000 -0.000000
vn 0.3198 -0.8973 -0.3042
vn 0.4320 -0.9003 0.0527
vn 0.0412 -0.9239 0.3805
vn -0.2263 -0.9507 0.2120
vn -0.1016 -0.9300 -0.3532
vn 0.5308 -0.5744 -0.6232
vn 0.7956 -0.5642 0.2205
vn 0.0213 -0.5789 0.8151
vn -0.4422 -0.8611 0.2509
vn -0.2374 -0.6397 -0.7311
vn 0.4525 0.3144 -0.8345
vn 0.7635 0.5878 0.2676
vn -0.0615 0.3657 0.9287
vn -0.6905 0.6020 0.4009
vn -0.3891 0.0645 -0.9190
vn 0.4439 0.2414 -0.8629
vn 0.9368 -0.1366 0.3221
vn -0.1085 0.0932 0.9897
vn -0.6213 0.6804 0.3886
vn -0.3920 0.7174 -0.5760
vn 0.2566 0.8966 -0.3609
vn 0.4237 0.9018 0.0844
vn -0.0519 0.9265 0.3726
vn -0.3507 0.9193 0.1787
vn -0.1976 0.9243 -0.3264
s off
f 1//1 6//1 2//1
f 1//2 2//2 3//2
f 1//3 3//3 4//3
f 1//4 4//4 5//4
f 1//5 5//5 6//5
f 2//6 6//6 7//6 8//6
f 3//7 2//7 8//7 9//7
f 4//8 3//8 9//8 10//8
f 5//9 4//9 10//9 11//9
f 6//10 5//10 11//10 7//10
f 8//11 7//11 12//11 13//11
f 9//12 8//12 13//12 14//12
f 10//13 9//13 14//13 15//13
f 11//14 10//14 15//14 16//14
f 7//15 11//15 16//15 12//15
f 13//16 12//16 17//16 18//16
f 14//17 13//17 18//17 19//17
f 15//18 14//18 19//18 20//18
f 16//19 15//19 20//19 21//19
f 12//20 16//20 21//20 17//20
f 18//21 17//21 22//21
f 19//22 18//22 22//22
f 20//23 19//23 22//23
f 21//24 20//24 22//24
f 17//25 21//25 22//25
