# Blender v2.78 (sub 0) OBJ File: 'StoneLarge_3.blend'
# www.blender.org
g Landscape
v -0.433380 -0.203944 0.043306
v -0.320175 -0.592573 -0.134302
v -0.229231 -0.596764 0.277586
v -0.194456 -0.055995 0.404573
v -0.164647 0.771172 -0.111338
v -0.334822 0.141645 -0.622817
v -0.080712 0.637488 -0.695551
v -0.071542 -0.672373 -0.291843
v -0.046118 -0.629280 0.428784
v 0.183568 0.523664 0.457118
v 0.054258 1.139408 -0.355893
v 0.331316 0.260296 -0.746397
v 0.222655 -0.568055 -0.592914
v 0.320538 -0.440059 0.669788
v 0.644459 0.083862 0.470180
v 0.436388 1.013574 -0.187816
v 0.554911 0.108477 -0.772977
v 0.573727 -0.567008 -0.261743
v 0.582231 -0.468245 0.573556
v 0.745271 0.070083 0.339338
v 0.737593 0.545292 -0.163713
v 0.879146 -0.191944 -0.068483
vn -0.9573 -0.1731 -0.2314
vn -0.9131 -0.3565 0.1980
vn -0.8155 -0.0821 0.5729
vn -0.8473 0.3027 0.4364
vn -0.9643 0.2649 -0.0052
vn -0.0875 -0.3994 -0.9126
vn -0.2505 -0.9663 0.0589
vn -0.3070 -0.0393 0.9509
vn -0.6167 0.5099 0.5998
vn -0.8874 0.4050 -0.2202
vn -0.4972 -0.1971 -0.8450
vn 0.4094 -0.9108 0.0531
vn -0.2396 0.1766 0.9547
vn 0.3225 0.6886 0.6495
vn 0.4156 0.4754 -0.7754
vn 0.3466 -0.3965 -0.8501
vn -0.0866 -0.9900 0.1114
vn 0.5364 0.0965 0.8384
vn 0.7259 0.5010 0.4713
vn 0.5809 0.4942 -0.6468
vn 0.7756 -0.3670 -0.5135
vn 0.7558 -0.6511 0.0693
vn 0.9196 -0.1150 0.3758
vn 0.9611 0.2080 0.1818
vn 0.9206 0.1291 -0.3686
s off
f 1//1 6//1 2//1
f 1//2 2//2 3//2
f 1//3 3//3 4//3
f 1//4 4//4 5//4
f 1//5 5//5 6//5
f 2//6 6//6 7//6 8//6
f 3//7 2//7 8//7 9//7
f 4//8 3//8 9//8 10//8
f 5//9 4//9 10//9 11//9
f 6//10 5//10 11//10 7//10
f 8//11 7//11 12//11 13//11
f 9//12 8//12 13//12 14//12
f 10//13 9//13 14//13 15//13
f 11//14 10//14 15//14 16//14
f 7//15 11//15 16//15 12//15
f 13//16 12//16 17//16 18//16
f 14//17 13//17 18//17 19//17
f 15//18 14//18 19//18 20//18
f 16//19 15//19 20//19 21//19
f 12//20 16//20 21//20 17//20
f 18//21 17//21 22//21
f 19//22 18//22 22//22
f 20//23 19//23 22//23
f 21//24 20//24 22//24
f 17//25 21//25 22//25
