# Blender v2.78 (sub 0) OBJ File: 'StoneLarge_2.blend'
# www.blender.org
g Landscape
v 0.310274 -0.548749 0.043306
v 0.700912 -0.441648 -0.134302
v 0.702538 -0.464599 0.512893
v 0.178498 -0.312686 0.404573
v -0.653811 -0.394336 -0.111338
v 0.080106 -0.459059 -0.622817
v 0.222665 -0.190705 -0.997980
v 1.160569 -0.176833 -0.291843
v 0.734571 -0.161883 0.891007
v -0.391763 -0.059799 0.792540
v -1.006798 -0.175833 -0.355893
v -0.141085 0.125880 -0.746397
v 0.678397 0.117365 -0.592914
v 0.562195 0.215247 0.673943
v 0.073189 0.385447 0.470180
v -0.898400 0.185439 -0.187816
v 0.032958 0.427368 -0.772977
v 0.702573 0.444673 -0.261743
v 0.574219 0.476941 0.573556
v 0.056558 0.437608 0.339338
v -0.340490 0.503628 -0.163713
v 0.346725 0.565483 -0.068483
vn 0.1777 -0.9653 -0.1914
vn 0.2494 -0.9678 -0.0349
vn -0.3321 -0.8405 0.4281
vn -0.2132 -0.8517 0.4787
vn -0.1446 -0.9860 -0.0828
vn 0.3499 -0.8297 -0.4349
vn 0.7136 -0.6814 0.1625
vn -0.1920 -0.8536 0.4842
vn -0.3621 -0.8351 0.4141
vn -0.3321 -0.7932 -0.5104
vn 0.3865 0.4710 -0.7930
vn 0.6662 0.7371 0.1135
vn -0.0596 0.5622 0.8248
vn -0.6659 0.5663 0.4858
vn -0.4805 0.3236 -0.8151
vn 0.3873 0.3002 -0.8717
vn 0.9867 -0.1082 0.1215
vn -0.2646 0.5695 0.7783
vn -0.4474 0.7800 0.4374
vn -0.5266 0.6197 -0.5820
vn 0.1778 0.9477 -0.2650
vn 0.3282 0.9445 0.0140
vn -0.1596 0.9687 0.1902
vn -0.1176 0.9684 0.2199
vn -0.0659 0.9843 -0.1636
s off
f 1//1 6//1 2//1
f 1//2 2//2 3//2
f 1//3 3//3 4//3
f 1//4 4//4 5//4
f 1//5 5//5 6//5
f 2//6 6//6 7//6 8//6
f 3//7 2//7 8//7 9//7
f 4//8 3//8 9//8 10//8
f 5//9 4//9 10//9 11//9
f 6//10 5//10 11//10 7//10
f 8//11 7//11 12//11 13//11
f 9//12 8//12 13//12 14//12
f 10//13 9//13 14//13 15//13
f 11//14 10//14 15//14 16//14
f 7//15 11//15 16//15 12//15
f 13//16 12//16 17//16 18//16
f 14//17 13//17 18//17 19//17
f 15//18 14//18 19//18 20//18
f 16//19 15//19 20//19 21//19
f 12//20 16//20 21//20 17//20
f 18//21 17//21 22//21
f 19//22 18//22 22//22
f 20//23 19//23 22//23
f 21//24 20//24 22//24
f 17//25 21//25 22//25
