# Blender v2.78 (sub 0) OBJ File: 'TreePartLarge_1.blend'
# www.blender.org
g Cylinder_Cylinder.001
v 0.000000 4.077054 -1.000000
v 0.000000 5.849665 -1.130491
v 0.432620 5.849665 -1.044438
v 0.799378 5.849665 -0.799378
v 1.044438 5.849665 -0.432620
v 1.130491 5.849665 0.000000
v 1.044438 5.849665 0.432620
v 0.799378 5.849665 0.799378
v 0.432620 5.849665 1.044438
v 0.000000 5.849665 1.130491
v -0.432620 5.849665 1.044438
v -0.799378 5.849665 0.799378
v -1.044438 5.849665 0.432621
v -1.130491 5.849665 -0.000000
v -1.044438 5.849665 -0.432621
v -0.799378 5.849665 -0.799378
v -0.432620 5.849665 -1.044438
v 0.327002 5.849665 -0.789453
v -0.000000 5.849665 -0.854497
v 0.604221 5.849665 -0.604221
v 0.789453 5.849665 -0.327002
v 0.854497 5.849665 0.000000
v 0.789453 5.849665 0.327002
v 0.604221 5.849665 0.604221
v 0.327002 5.849665 0.789453
v 0.000000 5.849665 0.854497
v -0.327002 5.849665 0.789453
v -0.604221 5.849665 0.604221
v -0.789453 5.849665 0.327002
v -0.854497 5.849665 0.000000
v -0.789452 5.849665 -0.327002
v -0.604221 5.849665 -0.604221
v -0.327002 5.849665 -0.789453
v -0.000000 5.235352 -0.854497
v 0.000000 5.235352 0.000000
v 0.327002 5.235352 -0.789453
v 0.604221 5.235352 -0.604221
v 0.789453 5.235352 -0.327002
v 0.854497 5.235352 0.000000
v 0.789453 5.235352 0.327002
v 0.604221 5.235352 0.604221
v 0.327002 5.235352 0.789453
v 0.000000 5.235352 0.854497
v -0.327002 5.235352 0.789453
v -0.604221 5.235352 0.604221
v -0.789453 5.235352 0.327002
v -0.854497 5.235352 0.000000
v -0.789452 5.235352 -0.327002
v -0.604221 5.235352 -0.604221
v -0.327002 5.235352 -0.789453
v 0.382683 4.077054 -0.923880
v 0.707107 4.077054 -0.707107
v 0.923880 4.077054 -0.382683
v 1.000000 4.077054 0.000000
v 0.923880 4.077054 0.382684
v 0.707107 4.077054 0.707107
v 0.382683 4.077054 0.923880
v 0.000000 4.077054 1.000000
v -0.382683 4.077054 0.923880
v -0.707107 4.077054 0.707107
v -0.923880 4.077054 0.382684
v -1.000000 4.077054 -0.000000
v -0.923879 4.077054 -0.382684
v -0.707107 4.077054 -0.707107
v -0.382683 4.077054 -0.923880
v 0.354636 2.038527 -0.856168
v 0.655282 2.038527 -0.655282
v 0.856168 2.038527 -0.354636
v 0.926709 2.038527 0.000000
v 0.856168 2.038527 0.354636
v 0.655282 2.038527 0.655282
v 0.354636 2.038527 0.856168
v 0.000000 2.038527 0.926709
v -0.354636 2.038527 0.856168
v -0.655282 2.038527 0.655283
v -0.856168 2.038527 0.354636
v -0.926709 2.038527 -0.000000
v -0.856168 2.038527 -0.354636
v -0.655282 2.038527 -0.655283
v -0.354636 2.038527 -0.856168
v 0.000000 2.038527 -0.926709
v 0.000000 -4.077054 -1.000000
v 0.000000 -5.849665 -1.130491
v 0.432620 -5.849665 -1.044438
v 0.799378 -5.849665 -0.799378
v 1.044438 -5.849665 -0.432620
v 1.130491 -5.849665 0.000000
v 1.044438 -5.849665 0.432620
v 0.799378 -5.849665 0.799378
v 0.432620 -5.849665 1.044438
v 0.000000 -5.849665 1.130491
v -0.432620 -5.849665 1.044438
v -0.799378 -5.849665 0.799378
v -1.044438 -5.849665 0.432621
v -1.130491 -5.849665 -0.000000
v -1.044438 -5.849665 -0.432621
v -0.799378 -5.849665 -0.799378
v -0.432620 -5.849665 -1.044438
v 0.000000 0.000000 -0.881654
v 0.337394 0.000000 -0.814542
v 0.623424 0.000000 -0.623424
v 0.814542 0.000000 -0.337394
v 0.881654 0.000000 0.000000
v 0.814542 0.000000 0.337395
v 0.623424 0.000000 0.623424
v 0.337394 0.000000 0.814542
v 0.000000 0.000000 0.881654
v -0.337394 0.000000 0.814542
v -0.623423 0.000000 0.623424
v -0.814542 0.000000 0.337395
v -0.881654 0.000000 -0.000000
v -0.814542 0.000000 -0.337395
v -0.623423 0.000000 -0.623424
v -0.337394 0.000000 -0.814542
v 0.327002 -5.849665 -0.789453
v -0.000000 -5.849665 -0.854497
v 0.604221 -5.849665 -0.604221
v 0.789453 -5.849665 -0.327002
v 0.854497 -5.849665 0.000000
v 0.789453 -5.849665 0.327002
v 0.604221 -5.849665 0.604221
v 0.327002 -5.849665 0.789453
v 0.000000 -5.849665 0.854497
v -0.327002 -5.849665 0.789453
v -0.604221 -5.849665 0.604221
v -0.789453 -5.849665 0.327002
v -0.854497 -5.849665 0.000000
v -0.789452 -5.849665 -0.327002
v -0.604221 -5.849665 -0.604221
v -0.327002 -5.849665 -0.789453
v -0.000000 -5.235352 -0.854497
v 0.000000 -5.235352 0.000000
v 0.327002 -5.235352 -0.789453
v 0.604221 -5.235352 -0.604221
v 0.789453 -5.235352 -0.327002
v 0.854497 -5.235352 0.000000
v 0.789453 -5.235352 0.327002
v 0.604221 -5.235352 0.604221
v 0.327002 -5.235352 0.789453
v 0.000000 -5.235352 0.854497
v -0.327002 -5.235352 0.789453
v -0.604221 -5.235352 0.604221
v -0.789453 -5.235352 0.327002
v -0.854497 -5.235352 0.000000
v -0.789452 -5.235352 -0.327002
v -0.604221 -5.235352 -0.604221
v -0.327002 -5.235352 -0.789453
v 0.382683 -4.077054 -0.923880
v 0.707107 -4.077054 -0.707107
v 0.923880 -4.077054 -0.382683
v 1.000000 -4.077054 0.000000
v 0.923880 -4.077054 0.382684
v 0.707107 -4.077054 0.707107
v 0.382683 -4.077054 0.923880
v 0.000000 -4.077054 1.000000
v -0.382683 -4.077054 0.923880
v -0.707107 -4.077054 0.707107
v -0.923880 -4.077054 0.382684
v -1.000000 -4.077054 -0.000000
v -0.923879 -4.077054 -0.382684
v -0.707107 -4.077054 -0.707107
v -0.382683 -4.077054 -0.923880
v 0.354636 -2.038527 -0.856168
v 0.655282 -2.038527 -0.655282
v 0.856168 -2.038527 -0.354636
v 0.926709 -2.038527 0.000000
v 0.856168 -2.038527 0.354636
v 0.655282 -2.038527 0.655282
v 0.354636 -2.038527 0.856168
v 0.000000 -2.038527 0.926709
v -0.354636 -2.038527 0.856168
v -0.655282 -2.038527 0.655283
v -0.856168 -2.038527 0.354636
v -0.926709 -2.038527 -0.000000
v -0.856168 -2.038527 -0.354636
v -0.655282 -2.038527 -0.655283
v -0.354636 -2.038527 -0.856168
v 0.000000 -2.038527 -0.926709
vn -0.8315 0.0000 0.5556
vn 0.1946 -0.0720 -0.9782
vn 0.5556 0.0000 -0.8315
vn 0.5541 -0.0720 -0.8293
vn -0.5556 0.0000 0.8315
vn 0.8293 -0.0720 -0.5541
vn 0.1951 0.0000 -0.9808
vn 0.9782 -0.0720 -0.1946
vn 0.1951 0.0000 0.9808
vn 0.9782 -0.0720 0.1946
vn -0.1951 0.0000 0.9808
vn 0.8293 -0.0720 0.5541
vn -0.1951 0.0000 -0.9808
vn 0.5541 -0.0720 0.8293
vn 0.5556 0.0000 0.8315
vn 0.1946 -0.0720 0.9782
vn -0.5556 0.0000 -0.8315
vn -0.1946 -0.0720 0.9782
vn 0.8315 0.0000 0.5556
vn -0.5541 -0.0720 0.8293
vn -0.8315 0.0000 -0.5556
vn -0.8293 -0.0720 0.5541
vn 0.9808 0.0000 0.1951
vn -0.9782 -0.0720 0.1946
vn -0.9808 0.0000 -0.1951
vn -0.9782 -0.0720 -0.1946
vn 0.9808 0.0000 -0.1951
vn -0.8293 -0.0720 -0.5541
vn -0.9808 0.0000 0.1951
vn -0.5541 -0.0720 -0.8293
vn 0.8315 0.0000 -0.5556
vn -0.1946 -0.0720 -0.9782
vn 0.0000 1.0000 0.0000
vn -0.1950 -0.0352 -0.9802
vn -0.5552 -0.0352 -0.8310
vn -0.8310 -0.0352 -0.5552
vn -0.9802 -0.0352 -0.1950
vn -0.9802 -0.0352 0.1950
vn -0.8310 -0.0352 0.5552
vn -0.5552 -0.0352 0.8310
vn -0.1950 -0.0352 0.9802
vn 0.1950 -0.0352 0.9802
vn 0.5552 -0.0352 0.8310
vn 0.8310 -0.0352 0.5552
vn 0.9802 -0.0352 0.1950
vn 0.9802 -0.0352 -0.1950
vn 0.8310 -0.0352 -0.5552
vn 0.5552 -0.0352 -0.8310
vn 0.1950 -0.0352 -0.9802
vn 0.1950 -0.0217 -0.9806
vn 0.5554 -0.0217 -0.8313
vn 0.8313 -0.0217 -0.5554
vn 0.9806 -0.0217 -0.1950
vn 0.9806 -0.0217 0.1950
vn 0.8313 -0.0217 0.5554
vn 0.5554 -0.0217 0.8313
vn 0.1950 -0.0217 0.9806
vn -0.1950 -0.0217 0.9806
vn -0.5554 -0.0217 0.8313
vn -0.8313 -0.0217 0.5554
vn -0.9806 -0.0217 0.1950
vn -0.9806 -0.0217 -0.1950
vn -0.8313 -0.0217 -0.5554
vn -0.5554 -0.0217 -0.8313
vn -0.1950 -0.0217 -0.9806
vn 0.1946 0.0720 -0.9782
vn 0.5541 0.0720 -0.8293
vn 0.8293 0.0720 -0.5541
vn 0.9782 0.0720 -0.1946
vn 0.9782 0.0720 0.1946
vn 0.8293 0.0720 0.5541
vn 0.5541 0.0720 0.8293
vn 0.1946 0.0720 0.9782
vn -0.1946 0.0720 0.9782
vn -0.5541 0.0720 0.8293
vn -0.8293 0.0720 0.5541
vn -0.9782 0.0720 0.1946
vn -0.9782 0.0720 -0.1946
vn -0.8293 0.0720 -0.5541
vn -0.5541 0.0720 -0.8293
vn -0.1946 0.0720 -0.9782
vn 0.0000 -1.0000 -0.0000
vn -0.1950 0.0352 -0.9802
vn -0.5552 0.0352 -0.8310
vn -0.8310 0.0352 -0.5552
vn -0.9802 0.0352 -0.1950
vn -0.9802 0.0352 0.1950
vn -0.8310 0.0352 0.5552
vn -0.5552 0.0352 0.8310
vn -0.1950 0.0352 0.9802
vn 0.1950 0.0352 0.9802
vn 0.5552 0.0352 0.8310
vn 0.8310 0.0352 0.5552
vn 0.9802 0.0352 0.1950
vn 0.9802 0.0352 -0.1950
vn 0.8310 0.0352 -0.5552
vn 0.5552 0.0352 -0.8310
vn 0.1950 0.0352 -0.9802
vn 0.1950 0.0217 -0.9806
vn 0.5554 0.0217 -0.8313
vn 0.8313 0.0217 -0.5554
vn 0.9806 0.0217 -0.1950
vn 0.9806 0.0217 0.1950
vn 0.8313 0.0217 0.5554
vn 0.5554 0.0217 0.8313
vn 0.1950 0.0217 0.9806
vn -0.1950 0.0217 0.9806
vn -0.5554 0.0217 0.8313
vn -0.8313 0.0217 0.5554
vn -0.9806 0.0217 0.1950
vn -0.9806 0.0217 -0.1950
vn -0.8313 0.0217 -0.5554
vn -0.5554 0.0217 -0.8313
vn -0.1950 0.0217 -0.9806
s off
f 21//1 20//1 37//1 38//1
f 1//2 2//2 3//2 51//2
f 28//3 27//3 44//3 45//3
f 51//4 3//4 4//4 52//4
f 20//5 18//5 36//5 37//5
f 52//6 4//6 5//6 53//6
f 27//7 26//7 43//7 44//7
f 53//8 5//8 6//8 54//8
f 19//9 33//9 50//9 34//9
f 54//10 6//10 7//10 55//10
f 18//11 19//11 34//11 36//11
f 55//12 7//12 8//12 56//12
f 26//13 25//13 42//13 43//13
f 56//14 8//14 9//14 57//14
f 33//15 32//15 49//15 50//15
f 57//16 9//16 10//16 58//16
f 25//17 24//17 41//17 42//17
f 58//18 10//18 11//18 59//18
f 32//19 31//19 48//19 49//19
f 59//20 11//20 12//20 60//20
f 24//21 23//21 40//21 41//21
f 60//22 12//22 13//22 61//22
f 31//23 30//23 47//23 48//23
f 61//24 13//24 14//24 62//24
f 23//25 22//25 39//25 40//25
f 62//26 14//26 15//26 63//26
f 30//27 29//27 46//27 47//27
f 63//28 15//28 16//28 64//28
f 22//29 21//29 38//29 39//29
f 64//30 16//30 17//30 65//30
f 29//31 28//31 45//31 46//31
f 65//32 17//32 2//32 1//32
f 19//33 18//33 3//33 2//33
f 18//33 20//33 4//33 3//33
f 20//33 21//33 5//33 4//33
f 21//33 22//33 6//33 5//33
f 22//33 23//33 7//33 6//33
f 23//33 24//33 8//33 7//33
f 24//33 25//33 9//33 8//33
f 25//33 26//33 10//33 9//33
f 26//33 27//33 11//33 10//33
f 27//33 28//33 12//33 11//33
f 28//33 29//33 13//33 12//33
f 29//33 30//33 14//33 13//33
f 30//33 31//33 15//33 14//33
f 31//33 32//33 16//33 15//33
f 32//33 33//33 17//33 16//33
f 33//33 19//33 2//33 17//33
f 35//33 36//33 34//33
f 35//33 37//33 36//33
f 35//33 38//33 37//33
f 35//33 39//33 38//33
f 35//33 40//33 39//33
f 35//33 41//33 40//33
f 35//33 42//33 41//33
f 35//33 43//33 42//33
f 35//33 44//33 43//33
f 35//33 45//33 44//33
f 35//33 46//33 45//33
f 35//33 47//33 46//33
f 35//33 48//33 47//33
f 35//33 49//33 48//33
f 35//33 50//33 49//33
f 35//33 34//33 50//33
f 80//34 65//34 1//34 81//34
f 79//35 64//35 65//35 80//35
f 78//36 63//36 64//36 79//36
f 77//37 62//37 63//37 78//37
f 76//38 61//38 62//38 77//38
f 75//39 60//39 61//39 76//39
f 74//40 59//40 60//40 75//40
f 73//41 58//41 59//41 74//41
f 72//42 57//42 58//42 73//42
f 71//43 56//43 57//43 72//43
f 70//44 55//44 56//44 71//44
f 69//45 54//45 55//45 70//45
f 68//46 53//46 54//46 69//46
f 67//47 52//47 53//47 68//47
f 66//48 51//48 52//48 67//48
f 81//49 1//49 51//49 66//49
f 99//50 81//50 66//50 100//50
f 100//51 66//51 67//51 101//51
f 101//52 67//52 68//52 102//52
f 102//53 68//53 69//53 103//53
f 103//54 69//54 70//54 104//54
f 104//55 70//55 71//55 105//55
f 105//56 71//56 72//56 106//56
f 106//57 72//57 73//57 107//57
f 107//58 73//58 74//58 108//58
f 108//59 74//59 75//59 109//59
f 109//60 75//60 76//60 110//60
f 110//61 76//61 77//61 111//61
f 111//62 77//62 78//62 112//62
f 112//63 78//63 79//63 113//63
f 113//64 79//64 80//64 114//64
f 114//65 80//65 81//65 99//65
f 118//1 135//1 134//1 117//1
f 82//66 148//66 84//66 83//66
f 125//3 142//3 141//3 124//3
f 148//67 149//67 85//67 84//67
f 117//5 134//5 133//5 115//5
f 149//68 150//68 86//68 85//68
f 124//7 141//7 140//7 123//7
f 150//69 151//69 87//69 86//69
f 116//9 131//9 147//9 130//9
f 151//70 152//70 88//70 87//70
f 115//11 133//11 131//11 116//11
f 152//71 153//71 89//71 88//71
f 123//13 140//13 139//13 122//13
f 153//72 154//72 90//72 89//72
f 130//15 147//15 146//15 129//15
f 154//73 155//73 91//73 90//73
f 122//17 139//17 138//17 121//17
f 155//74 156//74 92//74 91//74
f 129//19 146//19 145//19 128//19
f 156//75 157//75 93//75 92//75
f 121//21 138//21 137//21 120//21
f 157//76 158//76 94//76 93//76
f 128//23 145//23 144//23 127//23
f 158//77 159//77 95//77 94//77
f 120//25 137//25 136//25 119//25
f 159//78 160//78 96//78 95//78
f 127//27 144//27 143//27 126//27
f 160//79 161//79 97//79 96//79
f 119//29 136//29 135//29 118//29
f 161//80 162//80 98//80 97//80
f 126//31 143//31 142//31 125//31
f 162//81 82//81 83//81 98//81
f 116//82 83//82 84//82 115//82
f 115//82 84//82 85//82 117//82
f 117//82 85//82 86//82 118//82
f 118//82 86//82 87//82 119//82
f 119//82 87//82 88//82 120//82
f 120//82 88//82 89//82 121//82
f 121//82 89//82 90//82 122//82
f 122//82 90//82 91//82 123//82
f 123//82 91//82 92//82 124//82
f 124//82 92//82 93//82 125//82
f 125//82 93//82 94//82 126//82
f 126//82 94//82 95//82 127//82
f 127//82 95//82 96//82 128//82
f 128//82 96//82 97//82 129//82
f 129//82 97//82 98//82 130//82
f 130//82 98//82 83//82 116//82
f 132//82 131//82 133//82
f 132//82 133//82 134//82
f 132//82 134//82 135//82
f 132//82 135//82 136//82
f 132//82 136//82 137//82
f 132//82 137//82 138//82
f 132//82 138//82 139//82
f 132//82 139//82 140//82
f 132//82 140//82 141//82
f 132//82 141//82 142//82
f 132//82 142//82 143//82
f 132//82 143//82 144//82
f 132//82 144//82 145//82
f 132//82 145//82 146//82
f 132//82 146//82 147//82
f 132//82 147//82 131//82
f 177//83 178//83 82//83 162//83
f 176//84 177//84 162//84 161//84
f 175//85 176//85 161//85 160//85
f 174//86 175//86 160//86 159//86
f 173//87 174//87 159//87 158//87
f 172//88 173//88 158//88 157//88
f 171//89 172//89 157//89 156//89
f 170//90 171//90 156//90 155//90
f 169//91 170//91 155//91 154//91
f 168//92 169//92 154//92 153//92
f 167//93 168//93 153//93 152//93
f 166//94 167//94 152//94 151//94
f 165//95 166//95 151//95 150//95
f 164//96 165//96 150//96 149//96
f 163//97 164//97 149//97 148//97
f 178//98 163//98 148//98 82//98
f 99//99 100//99 163//99 178//99
f 100//100 101//100 164//100 163//100
f 101//101 102//101 165//101 164//101
f 102//102 103//102 166//102 165//102
f 103//103 104//103 167//103 166//103
f 104//104 105//104 168//104 167//104
f 105//105 106//105 169//105 168//105
f 106//106 107//106 170//106 169//106
f 107//107 108//107 171//107 170//107
f 108//108 109//108 172//108 171//108
f 109//109 110//109 173//109 172//109
f 110//110 111//110 174//110 173//110
f 111//111 112//111 175//111 174//111
f 112//112 113//112 176//112 175//112
f 113//113 114//113 177//113 176//113
f 114//114 99//114 178//114 177//114
