# Blender v2.78 (sub 0) OBJ File: 'Tree_4.blend'
# www.blender.org
g Cylinder.001_Cylinder.003
v -0.000668 -0.003496 0.000000
v -0.614159 1.450588 0.000000
v -0.241423 0.132626 0.204554
v -0.630282 1.439346 0.016591
v -0.299622 0.088683 0.098204
v -0.634263 1.436571 0.007806
v -0.374603 0.011776 -0.031641
v -0.635184 1.435930 -0.002167
v -0.279606 0.088667 -0.139278
v -0.632903 1.437520 -0.011810
v -0.203572 0.019892 -0.234254
v -0.627769 1.441099 -0.019655
v -0.114238 -0.035257 -0.357862
v -0.620563 1.446123 -0.024508
v 0.023102 0.087689 -0.306585
v -0.612382 1.451827 -0.025630
v 0.172310 0.052083 -0.333645
v -0.604471 1.457342 -0.022849
v 0.235630 0.087266 -0.197155
v -0.598035 1.461828 -0.016591
v 0.357862 0.032993 -0.113984
v -0.594055 1.464604 -0.007806
v 0.307844 0.125720 0.029933
v -0.593135 1.465246 0.002167
v 0.274305 0.103098 0.146677
v -0.595416 1.463656 0.011810
v 0.242255 0.017216 0.287002
v -0.600550 1.460076 0.019655
v 0.091569 0.087459 0.300404
v -0.607756 1.455052 0.024508
v -0.030380 0.177898 0.313984
v -0.615937 1.449348 0.025630
v -0.173636 0.085751 0.333645
v -0.623847 1.443833 0.022849
v -0.252983 0.618426 0.218220
v -0.312704 0.923518 0.161682
v -0.473918 1.209836 0.063114
v -0.489537 1.199862 0.029696
v -0.346111 0.947950 0.065128
v -0.282587 0.602977 0.094943
v -0.493170 1.197539 -0.008243
v -0.383425 0.975219 -0.018079
v -0.290160 0.514541 -0.026355
v -0.484231 1.203271 -0.044927
v -0.394673 1.016964 -0.098533
v -0.282618 0.425521 -0.227090
v -0.464054 1.216125 -0.074771
v -0.296385 0.984412 -0.163987
v -0.194169 0.528684 -0.239058
v -0.435766 1.234114 -0.093232
v -0.221910 0.984482 -0.247630
v -0.107180 0.635468 -0.298080
v -0.403604 1.254456 -0.097500
v -0.159862 1.045468 -0.213834
v 0.004396 0.593059 -0.311723
v -0.372457 1.274032 -0.086923
v -0.110398 1.103417 -0.190639
v 0.149932 0.531358 -0.353331
v -0.347111 1.289834 -0.063114
v -0.052364 1.127146 -0.138420
v 0.194885 0.603656 -0.201786
v -0.331373 1.299606 -0.029696
v 0.044176 1.119173 -0.081292
v 0.241378 0.666675 -0.094943
v -0.327723 1.301875 0.008243
v -0.007740 1.144720 0.018079
v 0.264764 0.575060 0.026355
v -0.336730 1.296288 0.044927
v -0.028482 1.136601 0.098533
v 0.306650 0.507444 0.175221
v -0.356992 1.283706 0.074771
v -0.040671 1.069250 0.163987
v 0.159822 0.617825 0.239057
v -0.385396 1.265916 0.093232
v -0.070720 1.012970 0.240532
v 0.052492 0.708185 0.298081
v -0.417581 1.245630 0.097499
v -0.178898 1.015198 0.213834
v -0.004348 0.657510 0.365155
v -0.448660 1.225924 0.086923
v -0.283212 1.025452 0.190639
v -0.156634 0.681847 0.277909
v -0.260889 0.933141 0.118215
v -0.314447 0.949308 0.055622
v -0.350478 0.977960 -0.015440
v -0.364297 1.018650 -0.084151
v -0.272909 0.981390 -0.140051
v -0.197444 0.978068 -0.174629
v -0.156257 1.032821 -0.182622
v -0.117026 1.086257 -0.162812
v -0.067496 1.106673 -0.118215
v -0.009556 1.079522 -0.055622
v -0.029429 1.121846 0.015440
v -0.047141 1.114818 0.084151
v -0.052892 1.050597 0.140051
v -0.087087 0.996674 0.174629
v -0.170821 1.004525 0.182622
v -0.264587 1.020090 0.162812
v -0.228794 0.585024 0.076053
v -0.235317 0.503636 -0.021427
v -0.208285 0.430923 -0.168917
v -0.158002 0.513406 -0.192364
v -0.087423 0.607808 -0.239798
v 0.001997 0.567881 -0.250762
v 0.090074 0.515870 -0.223587
v 0.155020 0.576645 -0.162412
v 0.192699 0.632110 -0.076548
v 0.211117 0.551788 0.020933
v 0.190565 0.498417 0.115188
v 0.126904 0.589077 0.191870
v 0.041288 0.669685 0.239303
v -0.002054 0.617726 0.271428
v -0.126807 0.651421 0.223093
v -0.187875 0.592510 0.161917
vt 0.7500 0.2500
vt 0.7500 0.4900
vt 0.8418 0.4717
vt 0.2500 0.2500
vt 0.3418 0.4717
vt 0.2500 0.4900
vt 0.0625 0.8750
vt 0.0625 1.0000
vt 0.0000 1.0000
vt 0.0000 0.8750
vt 0.9197 0.4197
vt 0.4197 0.4197
vt 0.1250 0.8750
vt 0.1250 1.0000
vt 0.0625 1.0000
vt 0.0625 0.8750
vt 0.9717 0.3418
vt 0.4717 0.3418
vt 0.1875 0.8750
vt 0.1875 1.0000
vt 0.1250 1.0000
vt 0.1250 0.8750
vt 0.9900 0.2500
vt 0.4900 0.2500
vt 0.2500 0.8750
vt 0.2500 1.0000
vt 0.1875 1.0000
vt 0.1875 0.8750
vt 0.9717 0.1582
vt 0.4717 0.1582
vt 0.3125 0.8750
vt 0.3125 1.0000
vt 0.2500 1.0000
vt 0.2500 0.8750
vt 0.9197 0.0803
vt 0.4197 0.0803
vt 0.3750 0.8750
vt 0.3750 1.0000
vt 0.3125 1.0000
vt 0.3125 0.8750
vt 0.8418 0.0283
vt 0.3418 0.0283
vt 0.4375 0.8750
vt 0.4375 1.0000
vt 0.3750 1.0000
vt 0.3750 0.8750
vt 0.7500 0.0100
vt 0.2500 0.0100
vt 0.5000 0.8750
vt 0.5000 1.0000
vt 0.4375 1.0000
vt 0.4375 0.8750
vt 0.6582 0.0283
vt 0.1582 0.0283
vt 0.5625 0.8750
vt 0.5625 1.0000
vt 0.5000 1.0000
vt 0.5000 0.8750
vt 0.5803 0.0803
vt 0.0803 0.0803
vt 0.6250 0.8750
vt 0.6250 1.0000
vt 0.5625 1.0000
vt 0.5625 0.8750
vt 0.5283 0.1582
vt 0.0283 0.1582
vt 0.6875 0.8750
vt 0.6875 1.0000
vt 0.6250 1.0000
vt 0.6250 0.8750
vt 0.5100 0.2500
vt 0.0100 0.2500
vt 0.7500 0.8750
vt 0.7500 1.0000
vt 0.6875 1.0000
vt 0.6875 0.8750
vt 0.5283 0.3418
vt 0.0283 0.3418
vt 0.8125 0.8750
vt 0.8125 1.0000
vt 0.7500 1.0000
vt 0.7500 0.8750
vt 0.5803 0.4197
vt 0.0803 0.4197
vt 0.8750 0.8750
vt 0.8750 1.0000
vt 0.8125 1.0000
vt 0.8125 0.8750
vt 0.6582 0.4717
vt 0.1582 0.4717
vt 0.9375 0.8750
vt 0.9375 1.0000
vt 0.8750 1.0000
vt 0.8750 0.8750
vt 1.0000 0.8750
vt 1.0000 1.0000
vt 0.9375 1.0000
vt 0.9375 0.8750
vt 1.0000 0.5625
vt 1.0000 0.6250
vt 0.9375 0.6250
vt 0.9375 0.5625
vt 1.0000 0.6875
vt 1.0000 0.7500
vt 0.9375 0.7500
vt 0.9375 0.6875
vt 0.9375 0.5625
vt 0.9375 0.6250
vt 0.8750 0.6250
vt 0.8750 0.5625
vt 0.9375 0.6875
vt 0.9375 0.7500
vt 0.8750 0.7500
vt 0.8750 0.6875
vt 0.8750 0.5625
vt 0.8750 0.6250
vt 0.8125 0.6250
vt 0.8125 0.5625
vt 0.8750 0.6875
vt 0.8750 0.7500
vt 0.8125 0.7500
vt 0.8125 0.6875
vt 0.8125 0.5625
vt 0.8125 0.6250
vt 0.7500 0.6250
vt 0.7500 0.5625
vt 0.8125 0.6875
vt 0.8125 0.7500
vt 0.7500 0.7500
vt 0.7500 0.6875
vt 0.7500 0.5625
vt 0.7500 0.6250
vt 0.6875 0.6250
vt 0.6875 0.5625
vt 0.7500 0.6875
vt 0.7500 0.7500
vt 0.6875 0.7500
vt 0.6875 0.6875
vt 0.6875 0.5625
vt 0.6875 0.6250
vt 0.6250 0.6250
vt 0.6250 0.5625
vt 0.6875 0.6875
vt 0.6875 0.7500
vt 0.6250 0.7500
vt 0.6250 0.6875
vt 0.6250 0.5625
vt 0.6250 0.6250
vt 0.5625 0.6250
vt 0.5625 0.5625
vt 0.6250 0.6875
vt 0.6250 0.7500
vt 0.5625 0.7500
vt 0.5625 0.6875
vt 0.5625 0.5625
vt 0.5625 0.6250
vt 0.5000 0.6250
vt 0.5000 0.5625
vt 0.5625 0.6875
vt 0.5625 0.7500
vt 0.5000 0.7500
vt 0.5000 0.6875
vt 0.5000 0.5625
vt 0.5000 0.6250
vt 0.4375 0.6250
vt 0.4375 0.5625
vt 0.5000 0.6875
vt 0.5000 0.7500
vt 0.4375 0.7500
vt 0.4375 0.6875
vt 0.4375 0.5625
vt 0.4375 0.6250
vt 0.3750 0.6250
vt 0.3750 0.5625
vt 0.4375 0.6875
vt 0.4375 0.7500
vt 0.3750 0.7500
vt 0.3750 0.6875
vt 0.3750 0.5625
vt 0.3750 0.6250
vt 0.3125 0.6250
vt 0.3125 0.5625
vt 0.3750 0.6875
vt 0.3750 0.7500
vt 0.3125 0.7500
vt 0.3125 0.6875
vt 0.3125 0.5625
vt 0.3125 0.6250
vt 0.2500 0.6250
vt 0.2500 0.5625
vt 0.3125 0.6875
vt 0.3125 0.7500
vt 0.2500 0.7500
vt 0.2500 0.6875
vt 0.2500 0.5625
vt 0.2500 0.6250
vt 0.1875 0.6250
vt 0.1875 0.5625
vt 0.2500 0.6875
vt 0.2500 0.7500
vt 0.1875 0.7500
vt 0.1875 0.6875
vt 0.1875 0.5625
vt 0.1875 0.6250
vt 0.1250 0.6250
vt 0.1250 0.5625
vt 0.1875 0.6875
vt 0.1875 0.7500
vt 0.1250 0.7500
vt 0.1250 0.6875
vt 0.1250 0.5625
vt 0.1250 0.6250
vt 0.0625 0.6250
vt 0.0625 0.5625
vt 0.1250 0.6875
vt 0.1250 0.7500
vt 0.0625 0.7500
vt 0.0625 0.6875
vt 0.0625 0.5625
vt 0.0625 0.6250
vt 0.0000 0.6250
vt 0.0000 0.5625
vt 0.0625 0.6875
vt 0.0625 0.7500
vt 0.0000 0.7500
vt 0.0000 0.6875
vt 0.0625 0.5000
vt 0.0000 0.5000
vt 0.1250 0.5000
vt 0.0625 0.5000
vt 0.1875 0.5000
vt 0.1250 0.5000
vt 0.2500 0.5000
vt 0.1875 0.5000
vt 0.3125 0.5000
vt 0.2500 0.5000
vt 0.3750 0.5000
vt 0.3125 0.5000
vt 0.4375 0.5000
vt 0.3750 0.5000
vt 0.5000 0.5000
vt 0.4375 0.5000
vt 0.5625 0.5000
vt 0.5000 0.5000
vt 0.6250 0.5000
vt 0.5625 0.5000
vt 0.6875 0.5000
vt 0.6250 0.5000
vt 0.7500 0.5000
vt 0.6875 0.5000
vt 0.8125 0.5000
vt 0.7500 0.5000
vt 0.8750 0.5000
vt 0.8125 0.5000
vt 0.9375 0.5000
vt 0.8750 0.5000
vt 1.0000 0.5000
vt 0.9375 0.5000
vn -0.1301 -0.8892 0.4386
vn -0.5719 0.8203 -0.0000
vn -0.7659 -0.4236 0.4837
vn -0.0800 -0.8367 0.5418
vn -0.5719 0.8203 0.0001
vn -0.8524 -0.5107 0.1126
vn 0.0150 -0.8198 -0.5724
vn -0.8284 -0.4865 -0.2775
vn -0.4251 -0.8600 0.2824
vn -0.6973 -0.3546 -0.6229
vn -0.3194 -0.9296 0.1839
vn -0.5720 0.8203 0.0000
vn -0.4801 -0.1373 -0.8664
vn 0.6906 -0.7061 -0.1565
vn -0.2124 0.1285 -0.9687
vn -0.2719 -0.9164 -0.2936
vn 0.0592 0.3958 -0.9164
vn 0.3960 -0.9167 0.0526
vn -0.5718 0.8204 0.0001
vn 0.2910 0.6218 -0.7271
vn -0.0631 -0.8757 -0.4787
vn -0.5720 0.8203 -0.0001
vn 0.4505 0.7761 -0.4412
vn 0.2642 -0.7664 0.5856
vn 0.5231 0.8462 -0.1013
vn 0.3909 -0.9181 -0.0656
vn 0.5032 0.8270 0.2507
vn 0.4997 -0.7850 -0.3663
vn 0.3920 0.7198 0.5728
vn -0.3651 -0.8540 0.3707
vn 0.1983 0.5318 0.8233
vn -0.5202 -0.7599 0.3898
vn -0.0549 0.2838 0.9573
vn 0.5236 -0.7153 0.4628
vn -0.3306 0.0114 0.9437
vn -0.5168 -0.8552 -0.0392
vn -0.5820 -0.2392 0.7772
vn 0.1878 -0.8020 0.5671
vn 0.6778 -0.3453 0.6491
vn -0.6034 -0.0750 0.7939
vn -0.3485 -0.8743 0.3379
vn -0.1669 -0.9680 0.1874
vn -0.2507 0.2434 0.9370
vn 0.7997 -0.5519 0.2366
vn -0.0770 -0.9590 0.2729
vn -0.1877 0.2959 0.9366
vn -0.3199 -0.7340 0.5990
vn 0.8375 -0.5437 -0.0550
vn 0.2491 0.6835 0.6861
vn -0.2710 -0.7257 0.6323
vn 0.8733 -0.3893 -0.2930
vn 0.2621 0.6936 0.6710
vn 0.3297 -0.8334 -0.4436
vn 0.7151 -0.6896 0.1143
vn 0.4232 0.8812 0.2106
vn 0.3240 -0.7128 -0.6221
vn 0.6378 -0.5846 0.5015
vn 0.4350 0.8999 -0.0294
vn 0.6384 -0.7481 0.1811
vn 0.2782 -0.7634 -0.5829
vn 0.3417 0.8303 -0.4402
vn 0.6124 -0.7727 0.1670
vn 0.5893 -0.7437 -0.3157
vn 0.2340 0.7336 -0.6380
vn -0.4305 -0.8438 -0.3205
vn 0.8025 -0.5481 -0.2356
vn -0.0543 0.4457 -0.8935
vn -0.3923 -0.8608 -0.3243
vn 0.7430 -0.5939 -0.3087
vn -0.0944 0.4346 -0.8957
vn 0.4980 -0.6769 -0.5421
vn -0.0705 -0.9956 -0.0621
vn -0.6780 -0.1763 -0.7136
vn 0.5553 -0.5362 -0.6357
vn -0.1954 -0.9505 0.2414
vn -0.6345 -0.1301 -0.7619
vn -0.2291 -0.8913 0.3912
vn 0.1932 -0.8446 -0.4993
vn -0.8976 -0.4144 -0.1503
vn -0.1282 -0.7794 0.6133
vn 0.0222 -0.9365 -0.3500
vn -0.8687 -0.4530 0.2004
vn -0.2356 -0.9542 0.1841
vn -0.0219 -0.9715 -0.2359
vn -0.8638 -0.4194 0.2792
vn -0.9123 0.0312 0.4083
vn -0.9631 -0.1009 0.2497
vn -0.9890 -0.1399 0.0481
vn -0.3964 0.1488 -0.9059
vn -0.5497 0.1146 -0.8274
vn -0.1559 0.2578 -0.9535
vn -0.1013 0.2646 -0.9590
vn 0.6777 0.4828 -0.5547
vn 0.7053 0.4669 -0.5335
vn 0.8657 0.4885 0.1094
vn 0.8669 0.4931 0.0729
vn 0.6304 0.4579 0.6268
vn 0.5662 0.4826 0.6682
vn 0.2732 0.5209 0.8087
vn -0.3517 0.2509 0.9019
vn -0.7886 0.0616 0.6118
vn -0.8947 0.1450 0.4225
vn -0.9579 0.2061 0.1999
vn -0.8827 0.2131 -0.4187
vn -0.6862 0.1065 -0.7196
vn -0.7391 0.1398 -0.6589
vn 0.1191 0.1513 -0.9813
vn 0.0669 0.1798 -0.9814
vn 0.7650 0.2225 -0.6044
vn 0.7103 0.2050 -0.6734
vn 0.9634 0.2429 0.1136
vn 0.9235 0.2184 0.3154
vn 0.8914 0.2343 0.3880
vn 0.3486 0.1747 0.9209
vn 0.2873 0.1028 0.9523
vn -0.1393 0.1592 0.9774
vn -0.8218 0.1620 0.5463
s off
f 1/1/1 3/2/1 5/3/1
f 2/4/2 6/5/2 4/6/2
f 37/7/3 4/8/3 6/9/3 38/10/3
f 1/1/4 5/3/4 7/11/4
f 2/4/5 8/12/5 6/5/5
f 38/13/6 6/14/6 8/15/6 41/16/6
f 1/1/7 7/11/7 9/17/7
f 2/4/2 10/18/2 8/12/2
f 41/19/8 8/20/8 10/21/8 44/22/8
f 1/1/9 9/17/9 11/23/9
f 2/4/2 12/24/2 10/18/2
f 44/25/10 10/26/10 12/27/10 47/28/10
f 1/1/11 11/23/11 13/29/11
f 2/4/12 14/30/12 12/24/12
f 47/31/13 12/32/13 14/33/13 50/34/13
f 1/1/14 13/29/14 15/35/14
f 2/4/2 16/36/2 14/30/2
f 50/37/15 14/38/15 16/39/15 53/40/15
f 1/1/16 15/35/16 17/41/16
f 2/4/2 18/42/2 16/36/2
f 53/43/17 16/44/17 18/45/17 56/46/17
f 1/1/18 17/41/18 19/47/18
f 2/4/19 20/48/19 18/42/19
f 56/49/20 18/50/20 20/51/20 59/52/20
f 1/1/21 19/47/21 21/53/21
f 2/4/22 22/54/22 20/48/22
f 59/55/23 20/56/23 22/57/23 62/58/23
f 1/1/24 21/53/24 23/59/24
f 2/4/2 24/60/2 22/54/2
f 62/61/25 22/62/25 24/63/25 65/64/25
f 1/1/26 23/59/26 25/65/26
f 2/4/2 26/66/2 24/60/2
f 65/67/27 24/68/27 26/69/27 68/70/27
f 1/1/28 25/65/28 27/71/28
f 2/4/2 28/72/2 26/66/2
f 68/73/29 26/74/29 28/75/29 71/76/29
f 1/1/30 27/71/30 29/77/30
f 2/4/2 30/78/2 28/72/2
f 71/79/31 28/80/31 30/81/31 74/82/31
f 1/1/32 29/77/32 31/83/32
f 2/4/2 32/84/2 30/78/2
f 74/85/33 30/86/33 32/87/33 77/88/33
f 1/1/34 31/83/34 33/89/34
f 2/4/2 34/90/2 32/84/2
f 77/91/35 32/92/35 34/93/35 80/94/35
f 1/1/36 33/89/36 3/2/36
f 2/4/2 4/6/2 34/90/2
f 80/95/37 34/96/37 4/97/37 37/98/37
f 113/99/38 82/100/38 35/101/38 114/102/38
f 98/103/39 81/104/39 36/105/39 83/106/39
f 81/104/40 80/95/40 37/98/40 36/105/40
f 112/107/41 79/108/41 82/109/41 113/110/41
f 97/111/42 78/112/42 81/113/42 98/114/42
f 78/112/43 77/91/43 80/94/43 81/113/43
f 111/115/44 76/116/44 79/117/44 112/118/44
f 96/119/45 75/120/45 78/121/45 97/122/45
f 75/120/46 74/85/46 77/88/46 78/121/46
f 110/123/47 73/124/47 76/125/47 111/126/47
f 95/127/48 72/128/48 75/129/48 96/130/48
f 72/128/49 71/79/49 74/82/49 75/129/49
f 109/131/50 70/132/50 73/133/50 110/134/50
f 94/135/51 69/136/51 72/137/51 95/138/51
f 69/136/52 68/73/52 71/76/52 72/137/52
f 108/139/53 67/140/53 70/141/53 109/142/53
f 93/143/54 66/144/54 69/145/54 94/146/54
f 66/144/55 65/67/55 68/70/55 69/145/55
f 107/147/56 64/148/56 67/149/56 108/150/56
f 92/151/57 63/152/57 66/153/57 93/154/57
f 63/152/58 62/61/58 65/64/58 66/153/58
f 106/155/59 61/156/59 64/157/59 107/158/59
f 91/159/60 60/160/60 63/161/60 92/162/60
f 60/160/61 59/55/61 62/58/61 63/161/61
f 105/163/62 58/164/62 61/165/62 106/166/62
f 90/167/63 57/168/63 60/169/63 91/170/63
f 57/168/64 56/49/64 59/52/64 60/169/64
f 104/171/65 55/172/65 58/173/65 105/174/65
f 89/175/66 54/176/66 57/177/66 90/178/66
f 54/176/67 53/43/67 56/46/67 57/177/67
f 103/179/68 52/180/68 55/181/68 104/182/68
f 88/183/69 51/184/69 54/185/69 89/186/69
f 51/184/70 50/37/70 53/40/70 54/185/70
f 102/187/71 49/188/71 52/189/71 103/190/71
f 87/191/72 48/192/72 51/193/72 88/194/72
f 48/192/73 47/31/73 50/34/73 51/193/73
f 101/195/74 46/196/74 49/197/74 102/198/74
f 86/199/75 45/200/75 48/201/75 87/202/75
f 45/200/76 44/25/76 47/28/76 48/201/76
f 100/203/77 43/204/77 46/205/77 101/206/77
f 85/207/78 42/208/78 45/209/78 86/210/78
f 42/208/79 41/19/79 44/22/79 45/209/79
f 99/211/80 40/212/80 43/213/80 100/214/80
f 84/215/81 39/216/81 42/217/81 85/218/81
f 39/216/82 38/13/82 41/16/82 42/217/82
f 114/219/83 35/220/83 40/221/83 99/222/83
f 83/223/84 36/224/84 39/225/84 84/226/84
f 36/224/85 37/7/85 38/10/85 39/225/85
f 35/220/86 83/223/86 84/226/86 40/221/86
f 40/212/87 84/215/87 85/218/87 43/213/87
f 43/204/88 85/207/88 86/210/88 46/205/88
f 46/196/89 86/199/89 87/202/89 49/197/89
f 49/188/90 87/191/90 88/194/90 52/189/90
f 52/180/91 88/183/91 89/186/91 55/181/91
f 55/172/92 89/175/92 90/178/92 58/173/92
f 58/164/93 90/167/93 91/170/93 61/165/93
f 61/156/94 91/159/94 92/162/94 64/157/94
f 64/148/95 92/151/95 93/154/95 67/149/95
f 67/140/96 93/143/96 94/146/96 70/141/96
f 70/132/97 94/135/97 95/138/97 73/133/97
f 73/124/98 95/127/98 96/130/98 76/125/98
f 76/116/99 96/119/99 97/122/99 79/117/99
f 79/108/100 97/111/100 98/114/100 82/109/100
f 82/100/101 98/103/101 83/106/101 35/101/101
f 3/227/102 114/219/102 99/222/102 5/228/102
f 5/229/103 99/211/103 100/214/103 7/230/103
f 7/231/104 100/203/104 101/206/104 9/232/104
f 9/233/105 101/195/105 102/198/105 11/234/105
f 11/235/106 102/187/106 103/190/106 13/236/106
f 13/237/107 103/179/107 104/182/107 15/238/107
f 15/239/108 104/171/108 105/174/108 17/240/108
f 17/241/109 105/163/109 106/166/109 19/242/109
f 19/243/110 106/155/110 107/158/110 21/244/110
f 21/245/111 107/147/111 108/150/111 23/246/111
f 23/247/112 108/139/112 109/142/112 25/248/112
f 25/249/113 109/131/113 110/134/113 27/250/113
f 27/251/114 110/123/114 111/126/114 29/252/114
f 29/253/115 111/115/115 112/118/115 31/254/115
f 31/255/116 112/107/116 113/110/116 33/256/116
f 33/257/117 113/99/117 114/102/117 3/258/117
